<svg width="45" height="26" viewBox="0 0 45 26" fill="none" xmlns="http://www.w3.org/2000/svg">
<style type="text/css">
	.st0{fill:#2271b1;}
</style>
<path d="M29.5097 11.002C29.5097 8.45396 31.5767 6.38107 34.1174 6.38107C36.658 6.38107 38.7249 8.45396 38.7249 11.002V21.9408C38.7249 23.6789 40.1294 25.0873 41.8625 25.0873C43.5953 25.0873 45 23.6789 45 21.9408V11.002C45 4.98435 40.1179 0.0879974 34.1174 0.0879974C31.089 0.0879974 28.3467 1.33634 26.372 3.34505C28.3101 5.31678 29.5091 8.02124 29.5091 11.002H29.5097Z" fill="#2271B1"/>
<path d="M23.2347 11.002C23.2347 8.02124 24.4337 5.31678 26.372 3.34505C24.397 1.33634 21.6547 0.0879974 18.6265 0.0879974C15.5985 0.0879974 12.8567 1.33591 10.8819 3.34418C12.8155 5.31047 14.0129 8.00623 14.0195 10.9779C14.0325 8.44091 16.0938 6.38107 18.6265 6.38107C21.167 6.38107 23.234 8.45396 23.234 11.002H23.2347Z" fill="#2271B1"/>
<path d="M29.5091 21.9408V11.002C29.5091 8.02124 28.3101 5.31678 26.372 3.34505C24.4337 5.31678 23.2347 8.02124 23.2347 11.002V21.9415C23.2347 22.8104 23.5857 23.5969 24.1534 24.1662C24.7211 24.7353 25.5053 25.0873 26.3715 25.0873C28.1044 25.0873 29.5091 23.6789 29.5091 21.9408Z" fill="#2271B1"/>
<path d="M3.13732 0.0879974C1.40444 0.0879974 0 1.49668 0 3.23454C0 4.9726 1.40444 6.38107 3.13732 6.38107C5.67004 6.38107 7.73136 8.44091 7.74438 10.9779C7.75089 8.00623 8.94837 5.31047 10.8819 3.34418C8.90715 1.33591 6.1653 0.0879974 3.13732 0.0879974Z" fill="#2271B1"/>
<path d="M7.74438 10.9779C7.74438 10.9859 7.74503 10.994 7.74503 11.002V21.9408C7.74503 23.6789 9.14947 25.0873 10.8826 25.0873C11.4236 25.0873 11.9328 24.9501 12.377 24.7081C13.355 24.1753 14.0188 23.1363 14.0188 21.9415V11.002C14.0188 10.994 14.0195 10.9859 14.0195 10.9779C14.0129 8.00623 12.8155 5.31047 10.8819 3.34418C8.94837 5.31047 7.75089 8.00623 7.74438 10.9779Z" fill="#2271B1"/>
<path d="M6.27095 3.23258C6.27095 4.96934 4.86716 6.37716 3.13537 6.37716C1.40379 6.37716 0 4.96934 0 3.23258C0 1.49603 1.40379 0.088215 3.13537 0.088215C4.86716 0.088215 6.27095 1.49603 6.27095 3.23258Z" fill="#2271B1"/>
<path d="M14.0147 21.9434C14.0147 23.6802 12.6109 25.088 10.8793 25.088C9.14752 25.088 7.74373 23.6802 7.74373 21.9434C7.74373 20.2069 9.14752 18.7991 10.8793 18.7991C12.6109 18.7991 14.0147 20.2069 14.0147 21.9434Z" fill="#2271B1"/>
<path d="M29.5056 21.9434C29.5056 23.6802 28.1016 25.088 26.3702 25.088C24.6384 25.088 23.2347 23.6802 23.2347 21.9434C23.2347 20.2069 24.6384 18.7991 26.3702 18.7991C28.1016 18.7991 29.5056 20.2069 29.5056 21.9434Z" fill="#2271B1"/>
<path d="M45 21.9434C45 23.6802 43.5962 25.088 41.8644 25.088C40.1328 25.088 38.729 23.6802 38.729 21.9434C38.729 20.2069 40.1328 18.7991 41.8644 18.7991C43.5962 18.7991 45 20.2069 45 21.9434Z" fill="#2271B1"/>
</svg>
