<?xml version="1.0" encoding="UTF-8" standalone="no"?>
<!DOCTYPE svg PUBLIC "-//W3C//DTD SVG 1.1//EN" "http://www.w3.org/Graphics/SVG/1.1/DTD/svg11.dtd">
<svg width="100%" height="100%" viewBox="0 0 640 512" version="1.1" xmlns="http://www.w3.org/2000/svg" xmlns:xlink="http://www.w3.org/1999/xlink" xml:space="preserve" xmlns:serif="http://www.serif.com/" style="fill-rule:evenodd;clip-rule:evenodd;stroke-linejoin:round;stroke-miterlimit:2;">
    <path d="M621.16,54.46C582.37,38.19 543.55,32 504.75,32C381.58,31.99 258.42,94.34 135.25,94.34C104.36,94.34 73.49,90.42 42.6,80.62C39.13,79.52 35.65,79 32.25,79C15.04,79 0,92.32 0,110.81L0,428.07C0,440.7 7.23,452.67 18.84,457.53C57.63,473.81 96.45,480 135.25,480C258.42,480 381.59,417.65 504.76,417.65C535.65,417.65 566.52,421.57 597.41,431.37C600.88,432.47 604.36,432.99 607.76,432.99C624.97,432.99 640.01,419.67 640.01,401.18L640.01,83.93C640,71.29 632.77,59.33 621.16,54.46ZM48,132.22C68.12,137.26 89.12,139.79 110.72,141.15C104.84,170.54 79,192.69 48,192.69L48,132.22ZM48,417.22L48,369.44C82.37,369.44 110.18,396.71 111.71,430.84C89.18,429.03 68.12,424.53 48,417.22ZM320,352C275.81,352 240,309.01 240,256C240,202.98 275.82,160 320,160C364.18,160 400,202.98 400,256C400,309.03 364.17,352 320,352ZM592,379.78C574.48,375.39 556.29,372.93 537.68,371.34C543.55,345.26 565.18,325.46 592,322.06L592,379.78ZM592,143.67C561.11,139.76 537.14,113.97 536.19,82.12C555.73,84.29 574.28,88.35 592,94.78L592,143.67Z" style="fill:white;fill-rule:nonzero;"/>
</svg>
