<svg enable-background="new 0 0 2000 2000" viewBox="0 0 2000 2000" xmlns="http://www.w3.org/2000/svg"><path d="m1504.1 878.5v-107.5h-184.9-76.1-34.2v459.4h110.3v-166.4h174.7v-102.5h-174.7v-83z" fill="#fff"/><path d="m1208.9 828v135h76.2c-9.1-53.6-36.8-100.9-76.2-135z" fill="#f5f5f5"/><path d="m1284.9 1041.1h-76v133.8c39.1-33.8 66.7-80.6 76-133.8z" fill="#f5f5f5"/><path d="m1157.3 1041.1c-16.6 50.2-63.9 86.4-119.7 86.4-69.6 0-126.1-56.4-126.1-126.1s56.4-126.1 126.1-126.1c56.2 0 103.8 36.8 120.1 87.6h105.9c-18.3-108.3-112.5-190.7-226-190.7-126.6 0-229.2 102.6-229.2 229.2s102.6 229.2 229.2 229.2c113.1 0 207-81.9 225.8-189.6h-106.1z" fill="#fff"/><path d="m762.8 771 .3-1.1h-.8-75.6-1.7l-180.6 457.8h116.7l.2-.6 1 .6 3.5-7.4 21.9-58.7h155.3l21.9 58.7 3.5 7.4h123.1zm-76.2 286.3 38.8-103.9 38.8 103.9z" fill="#fff"/><path d="m944.7 1211c10.4 4.6 21.2 8.5 32.4 11.5l-138.4-335c-5.7 9.9-10.6 20.3-14.8 31z" fill="#f5f5f5"/></svg>