<?xml version="1.0" encoding="UTF-8" standalone="no"?>
<!DOCTYPE svg PUBLIC "-//W3C//DTD SVG 1.1//EN" "http://www.w3.org/Graphics/SVG/1.1/DTD/svg11.dtd">
<svg width="100%" height="100%" viewBox="0 0 998 810" version="1.1" xmlns="http://www.w3.org/2000/svg" xmlns:xlink="http://www.w3.org/1999/xlink" xml:space="preserve" xmlns:serif="http://www.serif.com/" style="fill-rule:evenodd;clip-rule:evenodd;stroke-linejoin:round;stroke-miterlimit:2;">
    <g transform="matrix(1.35881,0,0,1.35881,-179.112,-143.958)">
        <path d="M359.8,331.2L160.7,331.2C148.1,331.2 137.9,341.5 138,354L138,430C138,442.6 148.2,452.8 160.8,452.8L255.1,452.8L298.2,476.8L288.4,452.8L359.8,452.8C372.4,452.8 382.6,442.6 382.6,430L382.6,354C382.6,341.4 372.4,331.2 359.8,331.2ZM238.1,431.3C238.3,433.8 237.9,436 236.9,437.9C235.7,440.1 233.9,441.3 231.6,441.5C229,441.7 226.3,440.5 223.7,437.8C214.4,428.3 207,414.1 201.6,395.2C195.1,408 190.3,417.6 187.2,424C181.3,435.3 176.3,441.1 172.1,441.4C169.4,441.6 167.1,439.3 165.1,434.5C160,421.4 154.5,396.1 148.6,358.6C148.3,356 148.8,353.7 150.2,351.9C151.6,350 153.7,349 156.5,348.8C161.6,348.4 164.5,350.8 165.2,356C168.3,376.9 171.7,394.6 175.3,409.1L197.2,367.4C199.2,363.6 201.7,361.6 204.7,361.4C209.1,361.1 211.8,363.9 212.9,369.8C215.4,383.1 218.6,394.4 222.4,404C225,378.6 229.4,360.3 235.6,349C237.1,346.2 239.3,344.8 242.2,344.6C244.5,344.4 246.6,345.1 248.5,346.6C250.4,348.1 251.4,350 251.6,352.3C251.7,354.1 251.4,355.6 250.6,357.1C246.7,364.3 243.5,376.4 240.9,393.2C238.4,409.5 237.5,422.2 238.1,431.3ZM299.5,415.6C293.5,425.6 285.7,430.6 276,430.6C274.3,430.6 272.5,430.4 270.6,430C263.5,428.5 258.2,424.7 254.6,418.4C251.4,412.9 249.8,406.3 249.8,398.6C249.8,388.3 252.4,378.9 257.6,370.4C263.7,360.4 271.5,355.4 281.1,355.4C282.8,355.4 284.6,355.6 286.5,356C293.5,357.5 298.9,361.3 302.5,367.6C305.7,373 307.3,379.5 307.3,387.3C307.3,397.6 304.7,407 299.5,415.6ZM362.2,415.6C356.2,425.6 348.4,430.6 338.7,430.6C337,430.6 335.2,430.4 333.3,430C326.2,428.5 320.9,424.7 317.3,418.4C314.1,412.9 312.5,406.3 312.5,398.6C312.5,388.3 315.1,378.9 320.3,370.4C326.4,360.4 334.2,355.4 343.8,355.4C345.5,355.4 347.3,355.6 349.2,356C356.3,357.5 361.6,361.3 365.2,367.6C368.4,373 370,379.5 370,387.3C370,397.6 367.4,407 362.2,415.6Z" style="fill:white;fill-rule:nonzero;"/>
        <path d="M345.6,372.3C342,371.6 338.5,373.6 335.2,378.5C332.5,382.3 330.8,386.3 329.9,390.4C329.4,392.7 329.2,395.2 329.2,397.7C329.2,400.6 329.8,403.7 331,406.8C332.5,410.7 334.5,412.8 336.9,413.3C339.4,413.8 342.1,412.7 345,410.1C348.7,406.8 351.2,401.9 352.6,395.3C353,393 353.3,390.5 353.3,387.9C353.3,385 352.7,381.9 351.5,378.8C350,374.9 348,372.8 345.6,372.3Z" style="fill:white;fill-rule:nonzero;"/>
        <path d="M282.9,372.3C279.3,371.6 275.8,373.6 272.5,378.5C269.8,382.3 268.1,386.3 267.2,390.4C266.7,392.7 266.5,395.2 266.5,397.7C266.5,400.6 267.1,403.7 268.3,406.8C269.8,410.7 271.8,412.8 274.2,413.3C276.7,413.8 279.4,412.7 282.3,410.1C286,406.8 288.5,401.9 289.9,395.3C290.4,393 290.6,390.5 290.6,387.9C290.6,385 290,381.9 288.8,378.8C287.3,374.9 285.3,372.8 282.9,372.3Z" style="fill:white;fill-rule:nonzero;"/>
        <path d="M407.9,366.7C401.2,373.3 397.9,381.7 397.9,391.9C397.9,402.8 401.2,411.7 407.8,418.4C414.4,425.1 423,428.5 433.7,428.5C436.8,428.5 440.3,428 444.1,426.9L444.1,410.7C440.6,411.7 437.6,412.2 435,412.2C429.7,412.2 425.5,410.4 422.3,406.9C419.1,403.3 417.5,398.5 417.5,392.4C417.5,386.7 419.1,382 422.2,378.4C425.4,374.7 429.3,372.9 434.1,372.9C437.2,372.9 440.5,373.4 444.1,374.4L444.1,358.2C440.8,357.3 437.1,356.9 433.2,356.9C423,356.8 414.6,360.1 407.9,366.7Z" style="fill:white;fill-rule:nonzero;"/>
        <path d="M557.1,358.7L553.5,374C552.6,377.9 551.7,381.9 550.9,386L548.9,396.6C547,386 544.4,373.4 541.1,358.7L517.9,358.7L509.2,426.8L526.6,426.8L531.3,379.9L543.2,426.8L555.6,426.8L567,380L571.9,426.8L590.1,426.8L580.9,358.7L557.1,358.7Z" style="fill:white;fill-rule:nonzero;"/>
        <path d="M477.3,356.8C468.1,356.8 460.9,359.9 455.7,366C450.5,372.1 448,380.7 448,391.7C448,403.6 450.6,412.7 455.7,419C460.8,425.3 468.3,428.5 478.1,428.5C487.6,428.5 494.9,425.3 500,419C505.1,412.7 507.7,403.8 507.7,392.4C507.7,381 505.1,372.2 499.9,366C494.6,359.9 487.1,356.8 477.3,356.8ZM485.2,408.8C483.4,411.6 480.7,413 477.3,413C474.1,413 471.7,411.6 470,408.8C468.3,406 467.5,400.4 467.5,391.9C467.5,378.8 470.8,372.3 477.5,372.3C484.5,372.3 488.1,378.9 488.1,392.2C488,400.4 487,406 485.2,408.8Z" style="fill:white;fill-rule:nonzero;"/>
        <path d="M841.1,412.3L841.1,399.8L857.4,399.8L857.4,385.7L841.1,385.7L841.1,373.2L860,373.2L860,358.7L822.8,358.7L822.8,426.8L860.1,426.8L860.1,412.3L841.1,412.3Z" style="fill:white;fill-rule:nonzero;"/>
        <path d="M767.7,389.1C769.6,386 770.6,382.8 770.6,379.5C770.6,373.1 768.1,368 763.1,364.3C758.1,360.6 751.2,358.7 742.6,358.7L721.2,358.7L721.2,426.8L739.6,426.8L739.6,395.8L739.9,395.8L754.8,426.8L774.2,426.8L759.5,396.1C763,394.5 765.8,392.2 767.7,389.1ZM739.5,388L739.5,371.8C743.9,371.9 747,372.6 748.9,374C750.8,375.4 751.7,377.6 751.7,380.8C751.7,385.5 747.6,387.9 739.5,388Z" style="fill:white;fill-rule:nonzero;"/>
        <path d="M781.4,366.7C774.7,373.3 771.4,381.7 771.4,391.9C771.4,402.8 774.7,411.7 781.3,418.4C787.9,425.1 796.5,428.5 807.2,428.5C810.3,428.5 813.8,428 817.6,426.9L817.6,410.7C814.1,411.7 811.1,412.2 808.5,412.2C803.2,412.2 799,410.4 795.8,406.9C792.6,403.3 791,398.5 791,392.4C791,386.7 792.6,382 795.7,378.4C798.9,374.7 802.8,372.9 807.6,372.9C810.7,372.9 814,373.4 817.6,374.4L817.6,358.2C814.3,357.3 810.6,356.9 806.7,356.9C796.6,356.8 788.1,360.1 781.4,366.7Z" style="fill:white;fill-rule:nonzero;"/>
        <path d="M697,399.9L713.3,399.9L713.3,385.8L697,385.8L697,373.3L715.8,373.3L715.8,358.8L678.6,358.8L678.6,426.9L715.9,426.9L715.9,412.4L697,412.4L697,399.9Z" style="fill:white;fill-rule:nonzero;"/>
        <path d="M640.4,358.7L636.8,374C635.9,377.9 635,381.9 634.2,386L632.2,396.6C630.3,386 627.7,373.4 624.4,358.7L601.2,358.7L592.5,426.8L609.9,426.8L614.6,379.9L626.5,426.8L638.9,426.8L650.2,380L655.1,426.8L673.3,426.8L664.1,358.7L640.4,358.7Z" style="fill:white;fill-rule:nonzero;"/>
    </g>
</svg>
