<svg clip-rule="evenodd" fill-rule="evenodd" stroke-linejoin="round" stroke-miterlimit="2" viewBox="0 0 998 810" xmlns="http://www.w3.org/2000/svg"><g fill="#fff" fill-rule="nonzero" transform="matrix(1.35881 0 0 1.35881 -179.112 -143.958)"><path d="m359.8 331.2h-199.1c-12.6 0-22.8 10.3-22.7 22.8v76c0 12.6 10.2 22.8 22.8 22.8h94.3l43.1 24-9.8-24h71.4c12.6 0 22.8-10.2 22.8-22.8v-76c0-12.6-10.2-22.8-22.8-22.8zm-121.7 100.1c.2 2.5-.2 4.7-1.2 6.6-1.2 2.2-3 3.4-5.3 3.6-2.6.2-5.3-1-7.9-3.7-9.3-9.5-16.7-23.7-22.1-42.6-6.5 12.8-11.3 22.4-14.4 28.8-5.9 11.3-10.9 17.1-15.1 17.4-2.7.2-5-2.1-7-6.9-5.1-13.1-10.6-38.4-16.5-75.9-.3-2.6.2-4.9 1.6-6.7 1.4-1.9 3.5-2.9 6.3-3.1 5.1-.4 8 2 8.7 7.2 3.1 20.9 6.5 38.6 10.1 53.1l21.9-41.7c2-3.8 4.5-5.8 7.5-6 4.4-.3 7.1 2.5 8.2 8.4 2.5 13.3 5.7 24.6 9.5 34.2 2.6-25.4 7-43.7 13.2-55 1.5-2.8 3.7-4.2 6.6-4.4 2.3-.2 4.4.5 6.3 2s2.9 3.4 3.1 5.7c.1 1.8-.2 3.3-1 4.8-3.9 7.2-7.1 19.3-9.7 36.1-2.5 16.3-3.4 29-2.8 38.1zm61.4-15.7c-6 10-13.8 15-23.5 15-1.7 0-3.5-.2-5.4-.6-7.1-1.5-12.4-5.3-16-11.6-3.2-5.5-4.8-12.1-4.8-19.8 0-10.3 2.6-19.7 7.8-28.2 6.1-10 13.9-15 23.5-15 1.7 0 3.5.2 5.4.6 7 1.5 12.4 5.3 16 11.6 3.2 5.4 4.8 11.9 4.8 19.7 0 10.3-2.6 19.7-7.8 28.3zm62.7 0c-6 10-13.8 15-23.5 15-1.7 0-3.5-.2-5.4-.6-7.1-1.5-12.4-5.3-16-11.6-3.2-5.5-4.8-12.1-4.8-19.8 0-10.3 2.6-19.7 7.8-28.2 6.1-10 13.9-15 23.5-15 1.7 0 3.5.2 5.4.6 7.1 1.5 12.4 5.3 16 11.6 3.2 5.4 4.8 11.9 4.8 19.7 0 10.3-2.6 19.7-7.8 28.3z"/><path d="m345.6 372.3c-3.6-.7-7.1 1.3-10.4 6.2-2.7 3.8-4.4 7.8-5.3 11.9-.5 2.3-.7 4.8-.7 7.3 0 2.9.6 6 1.8 9.1 1.5 3.9 3.5 6 5.9 6.5 2.5.5 5.2-.6 8.1-3.2 3.7-3.3 6.2-8.2 7.6-14.8.4-2.3.7-4.8.7-7.4 0-2.9-.6-6-1.8-9.1-1.5-3.9-3.5-6-5.9-6.5z"/><path d="m282.9 372.3c-3.6-.7-7.1 1.3-10.4 6.2-2.7 3.8-4.4 7.8-5.3 11.9-.5 2.3-.7 4.8-.7 7.3 0 2.9.6 6 1.8 9.1 1.5 3.9 3.5 6 5.9 6.5 2.5.5 5.2-.6 8.1-3.2 3.7-3.3 6.2-8.2 7.6-14.8.5-2.3.7-4.8.7-7.4 0-2.9-.6-6-1.8-9.1-1.5-3.9-3.5-6-5.9-6.5z"/><path d="m407.9 366.7c-6.7 6.6-10 15-10 25.2 0 10.9 3.3 19.8 9.9 26.5s15.2 10.1 25.9 10.1c3.1 0 6.6-.5 10.4-1.6v-16.2c-3.5 1-6.5 1.5-9.1 1.5-5.3 0-9.5-1.8-12.7-5.3-3.2-3.6-4.8-8.4-4.8-14.5 0-5.7 1.6-10.4 4.7-14 3.2-3.7 7.1-5.5 11.9-5.5 3.1 0 6.4.5 10 1.5v-16.2c-3.3-.9-7-1.3-10.9-1.3-10.2-.1-18.6 3.2-25.3 9.8z"/><path d="m557.1 358.7-3.6 15.3c-.9 3.9-1.8 7.9-2.6 12l-2 10.6c-1.9-10.6-4.5-23.2-7.8-37.9h-23.2l-8.7 68.1h17.4l4.7-46.9 11.9 46.9h12.4l11.4-46.8 4.9 46.8h18.2l-9.2-68.1z"/><path d="m477.3 356.8c-9.2 0-16.4 3.1-21.6 9.2s-7.7 14.7-7.7 25.7c0 11.9 2.6 21 7.7 27.3s12.6 9.5 22.4 9.5c9.5 0 16.8-3.2 21.9-9.5s7.7-15.2 7.7-26.6-2.6-20.2-7.8-26.4c-5.3-6.1-12.8-9.2-22.6-9.2zm7.9 52c-1.8 2.8-4.5 4.2-7.9 4.2-3.2 0-5.6-1.4-7.3-4.2s-2.5-8.4-2.5-16.9c0-13.1 3.3-19.6 10-19.6 7 0 10.6 6.6 10.6 19.9-.1 8.2-1.1 13.8-2.9 16.6z"/><path d="m841.1 412.3v-12.5h16.3v-14.1h-16.3v-12.5h18.9v-14.5h-37.2v68.1h37.3v-14.5z"/><path d="m767.7 389.1c1.9-3.1 2.9-6.3 2.9-9.6 0-6.4-2.5-11.5-7.5-15.2s-11.9-5.6-20.5-5.6h-21.4v68.1h18.4v-31h.3l14.9 31h19.4l-14.7-30.7c3.5-1.6 6.3-3.9 8.2-7zm-28.2-1.1v-16.2c4.4.1 7.5.8 9.4 2.2s2.8 3.6 2.8 6.8c0 4.7-4.1 7.1-12.2 7.2z"/><path d="m781.4 366.7c-6.7 6.6-10 15-10 25.2 0 10.9 3.3 19.8 9.9 26.5s15.2 10.1 25.9 10.1c3.1 0 6.6-.5 10.4-1.6v-16.2c-3.5 1-6.5 1.5-9.1 1.5-5.3 0-9.5-1.8-12.7-5.3-3.2-3.6-4.8-8.4-4.8-14.5 0-5.7 1.6-10.4 4.7-14 3.2-3.7 7.1-5.5 11.9-5.5 3.1 0 6.4.5 10 1.5v-16.2c-3.3-.9-7-1.3-10.9-1.3-10.1-.1-18.6 3.2-25.3 9.8z"/><path d="m697 399.9h16.3v-14.1h-16.3v-12.5h18.8v-14.5h-37.2v68.1h37.3v-14.5h-18.9z"/><path d="m640.4 358.7-3.6 15.3c-.9 3.9-1.8 7.9-2.6 12l-2 10.6c-1.9-10.6-4.5-23.2-7.8-37.9h-23.2l-8.7 68.1h17.4l4.7-46.9 11.9 46.9h12.4l11.3-46.8 4.9 46.8h18.2l-9.2-68.1z"/></g></svg>