<svg clip-rule="evenodd" fill-rule="evenodd" stroke-linejoin="round" stroke-miterlimit="2" viewBox="0 0 998 810" xmlns="http://www.w3.org/2000/svg"><g fill="#fff" fill-rule="nonzero" transform="matrix(1.92679 0 0 1.92679 11.2342 246.04)"><path d="m484.2 83.5h-1.9l.4 1.8c2.9 14.5.2 36.2-10.7 49.5-6.4 7.8-14.7 11.8-24.6 11.8-5.9 0-10.4-2.6-13.8-6.9h.1c-5.8-7.4-8.3-20-8.8-33.6h-.1c26.2-6.2 43.5-22.6 43.5-41.6 0-13.6-4.1-36.4-31.2-36.4-25.6 0-38.6 38.3-41.2 64.9-13.2-.2-22.7-6.5-28.5-12 0-.1 0-.2.1-.2l.1.1c2-8 3.1-15.5 3.4-22.4l-.2.1c0-1.1.1-2.2.1-3.3 0-10.7-7.5-15.6-14.4-15.6-10.1 0-20.3 9.7-20.3 28.3 0 11.2 4.3 20.3 12.7 27.1-7.5 17.5-20 32.3-24.3 37.1-3.3-7.2-14.2-32.8-17.5-60.7 0-.1.1-.3.1-.4 0 .1 0 .2.1.3 4.1-11.3 6.4-20.4 6.4-24.8 0-.4-.1-.8-.1-1.2h-.1c-.5-6.3-4.7-9.7-12.1-9.7-10.1 0-25.9 6.4-26.5 6.6l-.9.4.1 1c0 .2 4.8 22.7 9.6 47.2-9.2 15.3-25.5 40.3-33.8 40.3-14.9 0 9.7-76.3-1.1-78.6-.3-.1-.7 0-.9.2-5.2 3.2-63.4 35.6-141 35.6 0 0 .1 1.5.7 2.9.5 1.1 1.6 2.1 1.6 2.1 22 2.7 53.2-.3 76.9-3.6-13.6 29.3-37.9 48.8-60.3 48.8-41.8 0-74.2-50.8-74.2-50.8 13.1-11.4 34.6-48.8 65.4-48.8s44.4 17 44.4 17l3.5-5.5s-14.4-50.5-55.3-50.5-84.2 66.9-109.6 82.3c0 0 34.9 82.7 111.1 82.7 64 0 80.1-61.2 83.1-76.3 15.6-2.3 26.4-4.5 26.4-4.5s-3.9 31.3-3.9 44.3c0 12.9 14.3 26.9 26.3 26.9 10.2 0 30.4-20.8 45.3-46.1l.7 3c7.8 28.8 17.5 43.3 29 43.3 11.6 0 30.6-24 42.7-53.7 12.4 5.4 26.7 6.7 35.1 6.9h-.1c1 14.8 5.2 25.4 10.9 33.1 14.1 19.1 37.1 19.9 40.7 19.9 32 0 59-23 59-50.2 0-27.6-21.9-28.1-22.1-28.1zm-47.6-38.8c4.1 0 8.6 6.6 8.6 17.2 0 .2-.3 17.1-19.9 25.8.1-1.7.3-3.3.5-4.9 0-.4.1-.9.1-1.3 0-.3.1-.6.1-1 .1-.4.1-.9.2-1.3.1-.5.2-1.1.2-1.6 0-.3.1-.6.1-.9v-.3c.5-3.3 1-6.4 1.6-9.4 2.5-13 5.9-22.3 8.5-22.3z"/><path d="m222.4 41.5c-.1.6.4 1.2 1 1.3 15.2 2.1 25.1-2.5 25.1-27.3 0-23.1-23.8-4.9-28.2-1.4-.4.3-.5.9-.3 1.4 4.4 9.1 3 22.1 2.4 26z"/></g></svg>