<svg clip-rule="evenodd" fill-rule="evenodd" stroke-linejoin="round" stroke-miterlimit="2" viewBox="0 0 998 810" xmlns="http://www.w3.org/2000/svg"><path d="m774 1048.7h-.9l-53.3-154.1h-77v25.3l22.3 4.3v150.1l-22.3 4.3v25.1h86.6v-25.1l-22.4-4.3v-32.9l-4-91.8.9-.1 55.7 154.3h28.2l56-154.9.9.1-4 92.4v32.9l-22.3 4.3v25.1h86.6v-25.1l-22.4-4.3v-150.1l22.4-4.3v-25.3h-77.3zm211.7-103.2c-21.4-.1-38.4 7.3-51.1 22.3-12.7 14.9-19 34-19 57v5.7c0 22.1 6.7 40.4 20.1 54.7 13.4 14.4 31.3 21.5 53.7 21.5 12.5 0 23.9-1.7 34.1-5.2 10.2-3.4 18.5-7.7 24.9-12.8l-11.3-25.9c-7.3 4-14 7-20.1 8.8-6.1 1.9-13.8 2.8-23.1 2.8-10.4 0-18.7-3.3-24.8-9.9s-9.5-15-10.3-25.3l.3-.9h92.8v-22.8c0-21.5-5.8-38.6-17.4-51.3-11.5-12.4-27.8-18.7-48.8-18.7zm25.2 65.3h-51.4l-.4-.7c1.1-9.7 3.8-17.5 8.3-23.4s10.6-8.9 18.4-8.9c8.4 0 14.7 2.7 18.9 8s6.2 12.4 6.2 21.3zm138.3 62.6c-2.2.2-4.7.4-7.5.4-4.2 0-7.6-1.3-10.1-3.9s-3.7-6.9-3.7-12.9v-79.2h27.3v-29.4h-27.3v-38.1h-41.9v38.1h-22.8v29.4h22.8v79.3c0 17.2 3.9 29.8 11.7 37.8s18.9 11.9 33.4 11.9c5.4 0 10.3-.4 14.9-1.1s9.2-1.8 13.9-3.2l-3.6-30.3c-2.6.5-5 .9-7.1 1.2zm154.7-2.5c0-2.1-.1-4.4-.1-6.8v-64.2c0-17.4-6-30.9-18-40.3s-27.7-14.1-46.9-14.1c-11.7 0-22.5 1.8-32.4 5.3s-18.7 7.9-26.4 13.1l-.1 34.5h31.6l2.7-16.7c2.3-1.5 5.3-2.8 9.1-4 3.7-1.1 8-1.7 12.8-1.7 8.4 0 14.8 2.1 19.1 6.2s6.5 9.9 6.5 17.4v15.2h-21.4c-22.6 0-39.7 4-51.4 11.9-11.7 8-17.5 19.2-17.5 33.8 0 14.3 4.5 25.5 13.4 33.8 9 8.3 21 12.4 36.3 12.4 9.2 0 17.4-1.8 24.5-5.3s13.2-8.2 18.2-13.9c.5 2.8 1.1 5.5 2 8.3.9 2.7 1.9 5.4 3 8h48.4v-25.1l-12.8-1.7c-.4-2-.6-4-.6-6.1zm-42.2-9.5c-2.9 4.1-6.9 7.5-12.1 10.3-5.2 2.7-10.9 4.1-17.2 4.1-6 0-10.8-1.5-14.1-4.5-3.4-3-5.1-7.1-5.1-12.4 0-5.8 2.3-10.8 6.9-15s11.3-6.2 20.3-6.2h21.4v23.7zm270.3-66.4c9.8-3.8 17.2-9.6 22.3-17.2s7.7-16.3 7.7-25.9c0-19.1-6.9-33.4-20.7-43s-33-14.4-57.6-14.4h-92.9v25.3l22.3 4.3v150.1l-22.3 4.3v25.1h102.9c24.2 0 43-5.1 56.2-15.4s19.8-25.4 19.8-45.5c0-11.6-3.1-21.8-9.4-30.6-6.4-8.7-15.8-14.4-28.3-17.1zm-77-68.1h28.7c12.1 0 21.1 2.3 27.2 6.9s9.1 11.7 9.1 21.4c0 8.8-3 15.5-9.1 20.1s-14.7 6.9-25.9 6.9h-30zm64 137.4c-5.8 4.8-14.3 7.3-25.4 7.3h-38.6v-60.3h41.8c10.7 0 18.6 2.7 23.6 8.1s7.5 13.2 7.5 23.5c-.1 9.4-3 16.6-8.9 21.4zm134.6-118.8c-22.9 0-40.8 7.4-53.8 22.2s-19.5 33.8-19.5 57v3c0 23.4 6.5 42.4 19.5 57.1s31 22.1 54.1 22.1c22.8 0 40.7-7.3 53.7-22.1 13-14.7 19.5-33.7 19.5-57.1v-3c0-23.3-6.5-42.3-19.5-57-13-14.9-31-22.2-54-22.2zm31.6 82.1c0 14.1-2.5 25.4-7.5 34s-13 12.9-23.8 12.9c-11.1 0-19.2-4.3-24.1-12.9-5-8.6-7.5-19.9-7.5-34.1v-3c0-13.8 2.5-25 7.5-33.8 5-8.7 12.9-13.1 23.8-13.1s18.9 4.4 24 13.1 7.6 20 7.6 33.8zm194.4 48.7-42.1-51.1 39.9-49.1 14.1-2.4v-25.3h-70.2v24.3l14.5 1.7-23.1 29.9-23.6-29.9 14.2-1.7v-24.3h-70v25.3l14.5 2.4 40.8 49.1-42.2 51.1-14.5 2.3v25.1h69.2v-24.1l-12.5-1.6 24.6-31.5 24.1 31.3-14.2 1.7v24.1h71.1v-25.1zm-1353-302.2h-371c-22.5 0-40.9 18.4-40.9 40.9v371c0 22.5 18.4 40.9 40.9 40.9h371c22.5 0 40.9-18.4 40.9-40.9v-371c-.1-22.6-18.5-40.9-40.9-40.9zm-54.5 154.5-22.4 4.3v150.1l22.4 4.3v25.1h-86.6v-25.1l22.3-4.3v-32.9l4-92.4-.9-.1-56 154.9h-28.2l-55.7-154.3-.9.1 4 91.8v32.9l22.4 4.3v25.1h-86.5v-25.1l22.3-4.3v-150.1l-22.3-4.3v-25.3h77l53.3 154.1h.9l53.7-154.1h77.3v25.3z" fill="#fff" fill-rule="nonzero" transform="matrix(.54768 0 0 .54768 -51.1169 -142.954)"/></svg>