<svg clip-rule="evenodd" fill-rule="evenodd" stroke-linejoin="round" stroke-miterlimit="2" viewBox="0 0 640 512" xmlns="http://www.w3.org/2000/svg"><path d="m621.16 54.46c-38.79-16.27-77.61-22.46-116.41-22.46-123.17-.01-246.33 62.34-369.5 62.34-30.89 0-61.76-3.92-92.65-13.72-3.47-1.1-6.95-1.62-10.35-1.62-17.21 0-32.25 13.32-32.25 31.81v317.26c0 12.63 7.23 24.6 18.84 29.46 38.79 16.28 77.61 22.47 116.41 22.47 123.17 0 246.34-62.35 369.51-62.35 30.89 0 61.76 3.92 92.65 13.72 3.47 1.1 6.95 1.62 10.35 1.62 17.21 0 32.25-13.32 32.25-31.81v-317.25c-.01-12.64-7.24-24.6-18.85-29.47zm-573.16 77.76c20.12 5.04 41.12 7.57 62.72 8.93-5.88 29.39-31.72 51.54-62.72 51.54zm0 285v-47.78c34.37 0 62.18 27.27 63.71 61.4-22.53-1.81-43.59-6.31-63.71-13.62zm272-65.22c-44.19 0-80-42.99-80-96 0-53.02 35.82-96 80-96s80 42.98 80 96c0 53.03-35.83 96-80 96zm272 27.78c-17.52-4.39-35.71-6.85-54.32-8.44 5.87-26.08 27.5-45.88 54.32-49.28zm0-236.11c-30.89-3.91-54.86-29.7-55.81-61.55 19.54 2.17 38.09 6.23 55.81 12.66z" fill="#fff" fill-rule="nonzero"/></svg>