<?xml version="1.0" encoding="UTF-8" standalone="no"?>
<!DOCTYPE svg PUBLIC "-//W3C//DTD SVG 1.1//EN" "http://www.w3.org/Graphics/SVG/1.1/DTD/svg11.dtd">
<svg width="100%" height="100%" viewBox="0 0 998 810" version="1.1" xmlns="http://www.w3.org/2000/svg" xmlns:xlink="http://www.w3.org/1999/xlink" xml:space="preserve" xmlns:serif="http://www.serif.com/" style="fill-rule:evenodd;clip-rule:evenodd;stroke-linejoin:round;stroke-miterlimit:2;">
    <g transform="matrix(1,0,0,1,0,84.857)">
        <g transform="matrix(0.492642,0,0,0.492642,6.40717,-182.327)">
            <path d="M1266.4,844.1C1265,698.1 1146.2,580.2 999.9,580.2C853.6,580.2 734.8,698.1 733.4,844.1L855.6,721.9L896.6,762.9L807.2,852.3L1192.6,852.3L1103.2,762.9L1144.2,721.9L1266.4,844.1ZM999.9,798.3L886.4,679.1L961.9,679.1L961.9,620.4C961.9,605.2 979,592.7 1000,592.7C1020.9,592.7 1038.1,605.2 1038.1,620.4L1038.1,679.1L1113.6,679.1L999.9,798.3Z" style="fill:white;fill-rule:nonzero;"/>
            <path d="M1033,996.6C1026.9,992.7 1019.3,989.1 1010,986.1C1002.9,983.7 997.1,981.4 992.6,979.1C988.1,976.9 984.8,974.5 982.6,971.9C980.4,969.3 979.4,966.1 979.4,962.5C979.4,959.6 980.3,956.9 982.1,954.3C983.9,951.7 986.8,949.6 990.6,947.9C994.5,946.2 999.5,945.4 1005.7,945.3C1010.7,945.3 1015.2,945.7 1019.3,946.4C1023.4,947.1 1027,948 1030.1,949C1033.2,950.1 1035.8,951.1 1037.7,952L1044.6,931.3C1040.4,929.2 1035.2,927.5 1028.9,926.1C1023.5,924.9 1017.4,924.2 1010.4,924L1010.4,902.5L991.5,902.5L991.5,925C988.5,925.5 985.6,926.2 982.8,926.9C975.8,929 969.9,931.8 964.9,935.5C960,939.2 956.2,943.5 953.6,948.5C951,953.5 949.7,958.9 949.6,964.8C949.6,971.6 951.4,977.6 954.9,982.8C958.4,988 963.4,992.5 969.9,996.4C976.4,1000.2 984.1,1003.6 993,1006.4C999.7,1008.5 1005.1,1010.8 1009.3,1013.1C1013.5,1015.4 1016.5,1017.9 1018.4,1020.7C1020.3,1023.4 1021.3,1026.6 1021.3,1030.2C1021.3,1034.1 1020.1,1037.5 1017.9,1040.4C1015.7,1043.3 1012.4,1045.6 1008.1,1047.2C1003.8,1048.8 998.5,1049.6 992.4,1049.7C987.4,1049.7 982.5,1049.2 977.8,1048.4C973.1,1047.6 968.7,1046.5 964.6,1045.1C960.5,1043.7 956.9,1042.2 953.8,1040.6L947.2,1062.2C950.2,1063.9 954,1065.3 958.6,1066.7C963.2,1068.1 968.3,1069.2 973.8,1070C979.3,1070.8 985,1071.2 990.7,1071.3L991.7,1071.3L991.7,1093.5L1010.6,1093.5L1010.6,1069.5C1013,1069 1015.3,1068.5 1017.5,1067.8C1025.1,1065.5 1031.4,1062.4 1036.4,1058.4C1041.4,1054.4 1045.1,1049.9 1047.6,1044.7C1050.1,1039.5 1051.3,1034.1 1051.3,1028.3C1051.3,1021.5 1049.8,1015.5 1046.8,1010.3C1043.6,1005.2 1039.1,1000.6 1033,996.6Z" style="fill:white;fill-rule:nonzero;"/>
        </g>
        <g transform="matrix(0.492642,0,0,0.492642,6.40717,-182.327)">
            <path d="M23.6,1369.8C23.6,1373.9 24.2,1377.9 25.4,1381.8C26.6,1385.7 28.3,1389 30.7,1391.9C33,1394.8 36,1397.1 39.6,1398.8C43.2,1400.5 47.5,1401.4 52.4,1401.4C59.3,1401.4 64.8,1399.9 69.1,1397C73.3,1394 76.4,1389.6 78.5,1383.7L100.8,1383.7C99.6,1389.5 97.4,1394.7 94.4,1399.2C91.4,1403.8 87.7,1407.6 83.4,1410.7C79.1,1413.8 74.3,1416.2 69,1417.7C63.7,1419.3 58.1,1420.1 52.3,1420.1C43.9,1420.1 36.4,1418.7 30,1416C23.5,1413.2 18,1409.4 13.5,1404.4C9,1399.4 5.6,1393.5 3.4,1386.6C1.1,1379.7 0,1372.1 0,1363.8C0,1356.2 1.2,1349 3.6,1342.2C6,1335.4 9.5,1329.4 13.9,1324.2C18.3,1319 23.8,1314.9 30.1,1311.9C36.4,1308.9 43.6,1307.3 51.6,1307.3C60,1307.3 67.6,1309.1 74.3,1312.6C81,1316.1 86.5,1320.8 91,1326.6C95.4,1332.4 98.6,1339.1 100.6,1346.6C102.6,1354.1 103.1,1361.9 102.2,1369.9L23.6,1369.8ZM78.6,1354.3C78.3,1350.6 77.5,1347 76.2,1343.5C74.9,1340.1 73.1,1337.1 70.8,1334.5C68.5,1332 65.8,1329.9 62.5,1328.3C59.3,1326.7 55.6,1325.9 51.6,1325.9C47.5,1325.9 43.7,1326.6 40.3,1328.1C36.9,1329.5 34,1331.6 31.6,1334.1C29.2,1336.7 27.3,1339.7 25.8,1343.1C24.3,1346.6 23.6,1350.3 23.4,1354.3L78.6,1354.3Z" style="fill:white;fill-rule:nonzero;"/>
            <path d="M209.8,1393.4C209.8,1396.3 210.2,1398.4 210.9,1399.6C211.7,1400.8 213.1,1401.5 215.3,1401.5L217.8,1401.5C218.8,1401.5 219.9,1401.4 221.1,1401.1L221.1,1417.4C220.3,1417.7 219.2,1418 217.9,1418.3C216.6,1418.6 215.2,1419 213.9,1419.2C212.5,1419.5 211.1,1419.7 209.8,1419.8C208.5,1419.9 207.2,1420 206.3,1420C201.5,1420 197.5,1419 194.3,1417.1C191.1,1415.2 189.1,1411.8 188.1,1407C183.4,1411.5 177.7,1414.9 170.8,1416.9C164,1419 157.4,1420 151,1420C146.2,1420 141.5,1419.3 137.1,1418C132.7,1416.7 128.8,1414.8 125.4,1412.2C122,1409.6 119.3,1406.4 117.3,1402.5C115.3,1398.6 114.3,1394 114.3,1388.7C114.3,1382.1 115.5,1376.7 117.9,1372.6C120.3,1368.5 123.5,1365.2 127.4,1362.9C131.3,1360.6 135.7,1358.9 140.6,1357.8C145.5,1356.8 150.4,1356 155.4,1355.4C159.7,1354.6 163.7,1354 167.6,1353.6C171.5,1353.3 174.9,1352.7 177.8,1351.8C180.8,1351 183.1,1349.7 184.8,1348C186.5,1346.3 187.4,1343.7 187.4,1340.2C187.4,1337.2 186.7,1334.7 185.2,1332.7C183.7,1330.8 182,1329.3 179.8,1328.3C177.7,1327.3 175.3,1326.6 172.7,1326.2C170.1,1325.9 167.6,1325.7 165.2,1325.7C158.6,1325.7 153.1,1327.1 148.9,1329.8C144.6,1332.6 142.2,1336.8 141.7,1342.6L118.1,1342.6C118.5,1335.7 120.2,1330 123.1,1325.4C126,1320.8 129.7,1317.2 134.2,1314.4C138.7,1311.6 143.8,1309.7 149.4,1308.6C155.1,1307.5 160.9,1306.9 166.8,1306.9C172,1306.9 177.2,1307.5 182.3,1308.6C187.4,1309.7 192,1311.5 196.1,1314C200.2,1316.5 203.4,1319.7 205.9,1323.6C208.4,1327.5 209.6,1332.3 209.6,1338L209.8,1393.4ZM186.2,1363.6C182.6,1365.9 178.2,1367.4 173,1367.8C167.8,1368.3 162.5,1369 157.3,1370C154.8,1370.4 152.4,1371 150.1,1371.8C147.8,1372.6 145.7,1373.6 143.9,1374.9C142.1,1376.2 140.7,1377.9 139.7,1380.1C138.7,1382.2 138.1,1384.8 138.1,1387.9C138.1,1390.5 138.9,1392.7 140.4,1394.5C141.9,1396.3 143.7,1397.7 145.9,1398.7C148,1399.7 150.4,1400.5 152.9,1400.9C155.4,1401.3 157.8,1401.5 159.8,1401.5C162.4,1401.5 165.3,1401.2 168.3,1400.5C171.3,1399.8 174.2,1398.6 176.9,1397C179.6,1395.3 181.8,1393.2 183.6,1390.7C185.4,1388.2 186.3,1385 186.3,1381.3L186.2,1363.6Z" style="fill:white;fill-rule:nonzero;"/>
            <path d="M253.1,1382.8C253.8,1389.7 256.4,1394.5 261,1397.3C265.6,1400.1 271,1401.4 277.3,1401.4C279.5,1401.4 282,1401.2 284.9,1400.9C287.7,1400.6 290.4,1399.9 292.9,1398.9C295.4,1397.9 297.4,1396.5 299,1394.7C300.6,1392.8 301.3,1390.4 301.2,1387.4C301.1,1384.4 300,1381.9 297.9,1379.9C295.8,1378 293.2,1376.4 289.9,1375.2C286.7,1374 283,1373 278.8,1372.2C274.6,1371.4 270.5,1370.5 266.2,1369.5C261.8,1368.5 257.5,1367.4 253.5,1366C249.4,1364.6 245.8,1362.8 242.5,1360.4C239.3,1358.1 236.7,1355.1 234.7,1351.4C232.8,1347.7 231.8,1343.2 231.8,1337.8C231.8,1332 233.2,1327.1 236,1323.2C238.8,1319.3 242.4,1316.1 246.8,1313.7C251.1,1311.3 256,1309.6 261.3,1308.6C266.6,1307.6 271.7,1307.2 276.5,1307.2C282,1307.2 287.3,1307.8 292.3,1309C297.3,1310.2 301.9,1312.1 306,1314.7C310.1,1317.3 313.5,1320.7 316.1,1324.9C318.8,1329.1 320.5,1334.2 321.2,1340.1L296.6,1340.1C295.5,1334.4 292.9,1330.7 288.8,1328.7C284.7,1326.8 280.1,1325.8 274.8,1325.8C273.1,1325.8 271.2,1325.9 268.9,1326.2C266.6,1326.5 264.5,1327 262.5,1327.8C260.5,1328.6 258.8,1329.7 257.4,1331.1C256,1332.6 255.3,1334.4 255.3,1336.8C255.3,1339.7 256.3,1342 258.3,1343.8C260.3,1345.6 262.9,1347.1 266.2,1348.2C269.4,1349.4 273.1,1350.4 277.3,1351.2C281.4,1352 285.7,1352.9 290.1,1353.9C294.4,1354.9 298.6,1356 302.7,1357.4C306.8,1358.8 310.5,1360.6 313.8,1363C317,1365.3 319.7,1368.3 321.7,1371.9C323.7,1375.5 324.7,1379.9 324.7,1385.1C324.7,1391.4 323.2,1396.8 320.4,1401.2C317.5,1405.6 313.7,1409.2 309.1,1412C304.5,1414.8 299.3,1416.8 293.7,1418C288,1419.2 282.5,1419.9 276.9,1419.9C270.1,1419.9 263.9,1419.1 258.2,1417.6C252.5,1416.1 247.5,1413.8 243.3,1410.7C239.1,1407.6 235.8,1403.7 233.4,1399.1C231,1394.5 229.7,1389 229.6,1382.6L253.1,1382.8Z" style="fill:white;fill-rule:nonzero;"/>
            <path d="M330.9,1310.2L356.8,1310.2L384.7,1390.1L385.1,1390.1L412.2,1310.2L436.8,1310.2L395.3,1423C393.4,1427.8 391.5,1432.4 389.6,1436.9C387.7,1441.3 385.5,1445.2 382.8,1448.6C380.1,1452 376.8,1454.7 372.8,1456.7C368.8,1458.7 363.7,1459.7 357.5,1459.7C352,1459.7 346.5,1459.3 341.2,1458.5L341.2,1438.6C343.1,1438.9 345,1439.2 346.8,1439.5C348.6,1439.8 350.5,1440 352.4,1440C355.2,1440 357.4,1439.7 359.2,1439C361,1438.3 362.5,1437.3 363.6,1436C364.8,1434.7 365.8,1433.1 366.6,1431.3C367.4,1429.5 368.2,1427.4 368.9,1425.1L371.6,1416.8L330.9,1310.2Z" style="fill:white;fill-rule:nonzero;"/>
            <path d="M532,1417.2L532,1396.9L531.6,1396.9C530.2,1400.4 528.2,1403.5 525.5,1406.4C522.8,1409.3 519.7,1411.8 516.3,1413.7C512.8,1415.7 509.2,1417.3 505.2,1418.4C501.3,1419.5 497.4,1420.1 493.5,1420.1C485.4,1420.1 478.3,1418.6 472.3,1415.7C466.3,1412.7 461.3,1408.7 457.3,1403.5C453.3,1398.3 450.3,1392.3 448.4,1385.5C446.5,1378.7 445.5,1371.5 445.5,1363.9C445.5,1356.3 446.5,1349.1 448.4,1342.3C450.3,1335.5 453.3,1329.5 457.3,1324.3C461.3,1319.1 466.3,1315 472.3,1312C478.3,1309 485.4,1307.4 493.5,1307.4C497.5,1307.4 501.4,1307.9 505.2,1308.8C509,1309.8 512.5,1311.2 515.9,1313.2C519.2,1315.2 522.1,1317.6 524.7,1320.5C527.2,1323.4 529.2,1326.8 530.6,1330.6L531,1330.6L531,1269.3L544,1269.3L544,1417.1L532,1417.2ZM460.5,1380.2C461.8,1385.7 463.9,1390.5 466.7,1394.8C469.5,1399.1 473.1,1402.6 477.6,1405.2C482,1407.9 487.3,1409.2 493.5,1409.2C500.4,1409.2 506.2,1407.9 511,1405.2C515.8,1402.5 519.6,1399 522.6,1394.8C525.6,1390.5 527.7,1385.7 529,1380.2C530.3,1374.7 531,1369.3 531,1363.7C531,1358.2 530.3,1352.7 529,1347.3C527.7,1341.9 525.5,1337 522.6,1332.7C519.6,1328.4 515.8,1324.9 511,1322.2C506.2,1319.5 500.4,1318.2 493.5,1318.2C487.3,1318.2 482,1319.5 477.6,1322.2C473.2,1324.9 469.6,1328.4 466.7,1332.7C463.9,1337 461.8,1341.8 460.5,1347.3C459.2,1352.8 458.5,1358.2 458.5,1363.7C458.6,1369.3 459.2,1374.8 460.5,1380.2Z" style="fill:white;fill-rule:nonzero;"/>
            <path d="M582.1,1269.4L582.1,1290.3L569.1,1290.3L569.1,1269.4L582.1,1269.4ZM582.1,1310.4L582.1,1417.2L569.1,1417.2L569.1,1310.4L582.1,1310.4Z" style="fill:white;fill-rule:nonzero;"/>
            <path d="M694.8,1429.8C693.1,1436.1 690.4,1441.5 686.6,1445.9C682.8,1450.3 678,1453.7 672,1456C666,1458.3 658.6,1459.5 650,1459.5C644.6,1459.5 639.4,1458.9 634.3,1457.6C629.2,1456.4 624.6,1454.4 620.5,1451.8C616.4,1449.2 613,1445.8 610.4,1441.8C607.7,1437.7 606.2,1432.9 605.7,1427.2L618.7,1427.2C619.4,1431.2 620.7,1434.5 622.7,1437.2C624.7,1439.9 627.1,1442.1 629.9,1443.7C632.7,1445.4 635.9,1446.6 639.3,1447.3C642.7,1448.1 646.3,1448.4 649.9,1448.4C662,1448.4 670.8,1444.9 676.2,1438.1C681.6,1431.2 684.3,1421.3 684.3,1408.3L684.3,1394L683.9,1394C680.9,1400.6 676.4,1405.9 670.6,1409.9C664.7,1413.9 657.9,1415.9 650,1415.9C641.4,1415.9 634.1,1414.5 628.1,1411.7C622,1408.9 617,1405 613.1,1400C609.2,1395 606.3,1389.2 604.5,1382.5C602.7,1375.8 601.8,1368.7 601.8,1361.1C601.8,1353.8 602.9,1346.9 605,1340.3C607.1,1333.8 610.2,1328 614.3,1323.1C618.4,1318.2 623.4,1314.3 629.4,1311.5C635.4,1308.7 642.3,1307.3 650,1307.3C654,1307.3 657.8,1307.9 661.3,1309C664.8,1310.1 668,1311.7 670.9,1313.7C673.8,1315.7 676.4,1318 678.7,1320.6C681,1323.2 682.7,1326 684,1328.9L684.4,1328.9L684.4,1310.5L697.4,1310.5L697.4,1408.6C697.4,1416.4 696.5,1423.5 694.8,1429.8ZM664.9,1401.4C669.2,1399 672.8,1395.8 675.7,1391.9C678.6,1388 680.8,1383.5 682.2,1378.3C683.7,1373.2 684.4,1368 684.4,1362.6C684.4,1357.4 683.8,1352.1 682.5,1346.9C681.3,1341.7 679.3,1336.9 676.5,1332.6C673.7,1328.3 670.2,1324.9 665.8,1322.3C661.5,1319.7 656.2,1318.4 650,1318.4C643.8,1318.4 638.5,1319.7 634.1,1322.2C629.7,1324.8 626,1328.1 623.1,1332.2C620.2,1336.3 618.1,1341.1 616.8,1346.4C615.5,1351.7 614.8,1357.1 614.8,1362.6C614.8,1368 615.5,1373.2 616.9,1378.3C618.3,1383.4 620.4,1387.9 623.3,1391.9C626.2,1395.9 629.8,1399 634.3,1401.4C638.7,1403.8 644,1405 650,1405C655.6,1405 660.6,1403.8 664.9,1401.4Z" style="fill:white;fill-rule:nonzero;"/>
            <path d="M735.5,1269.4L735.5,1290.3L722.5,1290.3L722.5,1269.4L735.5,1269.4ZM735.5,1310.4L735.5,1417.2L722.5,1417.2L722.5,1310.4L735.5,1310.4Z" style="fill:white;fill-rule:nonzero;"/>
            <path d="M802.9,1310.3L802.9,1321.4L781.2,1321.4L781.2,1393.4C781.2,1397.7 781.8,1401 783,1403.4C784.2,1405.8 787.1,1407.2 791.8,1407.4C795.5,1407.4 799.3,1407.2 803,1406.8L803,1417.8C801.1,1417.8 799.1,1417.9 797.2,1418C795.3,1418.1 793.3,1418.2 791.4,1418.2C782.7,1418.2 776.6,1416.5 773.2,1413.1C769.7,1409.7 768.1,1403.5 768.2,1394.4L768.2,1321.3L749.6,1321.3L749.6,1310.3L768.2,1310.3L768.2,1278.2L781.2,1278.2L781.2,1310.3L802.9,1310.3Z" style="fill:white;fill-rule:nonzero;"/>
            <path d="M824.4,1327C826.6,1322.4 829.6,1318.7 833.4,1315.8C837.2,1312.9 841.6,1310.8 846.7,1309.4C851.8,1308 857.5,1307.3 863.7,1307.3C868.4,1307.3 873.1,1307.7 877.8,1308.6C882.5,1309.5 886.7,1311.2 890.4,1313.7C894.1,1316.2 897.2,1319.7 899.5,1324.2C901.8,1328.7 903,1334.5 903,1341.7L903,1398.4C903,1403.6 905.6,1406.3 910.7,1406.3C912.2,1406.3 913.6,1406 914.8,1405.5L914.8,1416.5C913.3,1416.8 911.9,1417 910.8,1417.1C909.6,1417.2 908.1,1417.3 906.4,1417.3C903.1,1417.3 900.4,1416.9 898.4,1416C896.4,1415.1 894.8,1413.8 893.7,1412.2C892.6,1410.5 891.9,1408.6 891.5,1406.3C891.2,1404 891,1401.5 891,1398.7L890.6,1398.7C888.3,1402.2 885.9,1405.2 883.5,1407.9C881.1,1410.6 878.4,1412.8 875.4,1414.6C872.4,1416.4 869.1,1417.8 865.3,1418.7C861.5,1419.7 857,1420.2 851.7,1420.2C846.7,1420.2 842.1,1419.6 837.7,1418.4C833.4,1417.2 829.6,1415.4 826.3,1412.8C823.1,1410.3 820.5,1407 818.6,1403.1C816.7,1399.2 815.8,1394.5 815.8,1389.1C815.8,1381.6 817.5,1375.8 820.8,1371.6C824.1,1367.4 828.5,1364.2 833.9,1362C839.4,1359.8 845.5,1358.2 852.3,1357.3C859.1,1356.4 866.1,1355.5 873.1,1354.7C875.9,1354.4 878.3,1354.1 880.3,1353.7C882.4,1353.3 884.1,1352.6 885.5,1351.5C886.9,1350.5 887.9,1349.1 888.7,1347.3C889.5,1345.5 889.8,1343.2 889.8,1340.3C889.8,1335.9 889.1,1332.3 887.6,1329.4C886.1,1326.6 884.1,1324.3 881.6,1322.7C879,1321 876.1,1319.9 872.7,1319.3C869.3,1318.7 865.7,1318.4 861.8,1318.4C853.5,1318.4 846.8,1320.4 841.5,1324.3C836.3,1328.2 833.5,1334.5 833.2,1343.2L820.2,1343.2C820.9,1336.9 822.2,1331.5 824.4,1327ZM889.6,1358.8C888.8,1360.3 887.2,1361.4 884.8,1362.1C882.5,1362.8 880.4,1363.3 878.6,1363.5C873.1,1364.5 867.4,1365.3 861.5,1366.1C855.6,1366.9 850.3,1368 845.5,1369.5C840.7,1371 836.7,1373.2 833.6,1376C830.5,1378.8 828.9,1382.9 828.9,1388.1C828.9,1391.4 829.6,1394.3 830.9,1396.9C832.2,1399.5 834,1401.7 836.2,1403.5C838.4,1405.4 841,1406.8 843.9,1407.7C846.8,1408.7 849.8,1409.2 852.8,1409.2C857.8,1409.2 862.5,1408.4 867.1,1406.9C871.7,1405.4 875.6,1403.2 879,1400.3C882.4,1397.4 885.1,1393.9 887.1,1389.7C889.1,1385.6 890.1,1380.9 890.1,1375.6L890.1,1358.6L889.6,1358.8Z" style="fill:white;fill-rule:nonzero;"/>
            <rect x="929.4" y="1269.4" width="13" height="147.8" style="fill:white;"/>
            <path d="M1068.2,1417.2L1045.9,1417.2L1045.9,1402.7L1045.5,1402.7C1042.3,1408.9 1037.7,1413.4 1031.6,1416C1025.5,1418.7 1019.1,1420 1012.4,1420C1004,1420 996.6,1418.5 990.4,1415.6C984.1,1412.6 978.9,1408.6 974.8,1403.5C970.7,1398.4 967.6,1392.4 965.5,1385.4C963.4,1378.4 962.4,1371 962.4,1362.9C962.4,1353.2 963.7,1344.9 966.3,1337.9C968.9,1330.9 972.4,1325.1 976.8,1320.5C981.1,1315.9 986.1,1312.6 991.7,1310.5C997.3,1308.4 1003,1307.3 1008.8,1307.3C1012.1,1307.3 1015.5,1307.6 1018.9,1308.2C1022.3,1308.8 1025.7,1309.8 1028.8,1311.2C1032,1312.6 1034.9,1314.3 1037.6,1316.5C1040.3,1318.6 1042.5,1321.2 1044.3,1324.1L1044.7,1324.1L1044.7,1269.5L1068.3,1269.5L1068.2,1417.2ZM985.8,1364.8C985.8,1369.4 986.4,1373.8 987.6,1378.3C988.8,1382.7 990.6,1386.6 993,1390.1C995.4,1393.6 998.5,1396.3 1002.2,1398.4C1005.9,1400.5 1010.3,1401.5 1015.4,1401.5C1020.6,1401.5 1025.2,1400.4 1029,1398.2C1032.8,1396 1035.9,1393.1 1038.3,1389.5C1040.7,1385.9 1042.5,1381.9 1043.7,1377.4C1044.9,1372.9 1045.5,1368.3 1045.5,1363.6C1045.5,1351.7 1042.8,1342.5 1037.5,1335.9C1032.2,1329.3 1025,1326 1015.9,1326C1010.4,1326 1005.7,1327.1 1001.9,1329.4C998.1,1331.7 995,1334.6 992.6,1338.3C990.2,1342 988.5,1346.1 987.4,1350.7C986.4,1355.3 985.8,1360 985.8,1364.8Z" style="fill:white;fill-rule:nonzero;"/>
            <path d="M1142.9,1420.1C1134.3,1420.1 1126.7,1418.7 1120,1415.9C1113.3,1413.1 1107.7,1409.2 1103,1404.2C1098.4,1399.2 1094.9,1393.3 1092.4,1386.4C1090,1379.5 1088.8,1371.9 1088.8,1363.6C1088.8,1355.5 1090,1347.9 1092.4,1341C1094.8,1334.1 1098.3,1328.2 1103,1323.2C1107.7,1318.2 1113.3,1314.3 1120,1311.5C1126.7,1308.7 1134.3,1307.3 1142.9,1307.3C1151.5,1307.3 1159.1,1308.7 1165.8,1311.5C1172.5,1314.3 1178.1,1318.2 1182.8,1323.2C1187.4,1328.2 1190.9,1334.1 1193.4,1341C1195.8,1347.9 1197,1355.4 1197,1363.6C1197,1371.9 1195.8,1379.5 1193.4,1386.4C1191,1393.3 1187.5,1399.2 1182.8,1404.2C1178.2,1409.2 1172.5,1413.1 1165.8,1415.9C1159.1,1418.7 1151.5,1420.1 1142.9,1420.1ZM1142.9,1401.5C1148.1,1401.5 1152.7,1400.4 1156.6,1398.2C1160.5,1396 1163.6,1393.1 1166.1,1389.5C1168.6,1385.9 1170.4,1381.9 1171.6,1377.4C1172.8,1372.9 1173.4,1368.3 1173.4,1363.6C1173.4,1359.1 1172.8,1354.5 1171.6,1349.9C1170.4,1345.3 1168.6,1341.3 1166.1,1337.8C1163.6,1334.3 1160.4,1331.4 1156.6,1329.2C1152.7,1327 1148.2,1325.9 1142.9,1325.9C1137.7,1325.9 1133.1,1327 1129.2,1329.2C1125.3,1331.4 1122.2,1334.3 1119.7,1337.8C1117.2,1341.3 1115.4,1345.4 1114.2,1349.9C1113,1354.5 1112.4,1359 1112.4,1363.6C1112.4,1368.3 1113,1372.9 1114.2,1377.4C1115.4,1381.9 1117.2,1385.9 1119.7,1389.5C1122.2,1393.1 1125.4,1396 1129.2,1398.2C1133.1,1400.4 1137.7,1401.5 1142.9,1401.5Z" style="fill:white;fill-rule:nonzero;"/>
            <path d="M1206.9,1310.2L1231.9,1310.2L1252.8,1390.1L1253.2,1390.1L1273.3,1310.2L1297.1,1310.2L1316.3,1390.1L1316.7,1390.1L1338.4,1310.2L1362.4,1310.2L1328.9,1417.2L1304.7,1417.2L1284.8,1337.7L1284.4,1337.7L1264.7,1417.2L1240,1417.2L1206.9,1310.2Z" style="fill:white;fill-rule:nonzero;"/>
            <path d="M1377.6,1310.2L1399.9,1310.2L1399.9,1325.9L1400.3,1326.3C1403.9,1320.4 1408.6,1315.7 1414.4,1312.3C1420.2,1308.9 1426.6,1307.2 1433.6,1307.2C1445.3,1307.2 1454.6,1310.2 1461.3,1316.3C1468.1,1322.4 1471.4,1331.5 1471.4,1343.6L1471.4,1417.1L1447.8,1417.1L1447.8,1349.8C1447.5,1341.4 1445.7,1335.3 1442.4,1331.5C1439.1,1327.7 1433.9,1325.8 1426.9,1325.8C1422.9,1325.8 1419.3,1326.5 1416.1,1328C1412.9,1329.4 1410.2,1331.5 1408,1334C1405.8,1336.6 1404.1,1339.6 1402.8,1343C1401.6,1346.5 1400.9,1350.1 1400.9,1354L1400.9,1417.1L1377.3,1417.1L1377.6,1310.2Z" style="fill:white;fill-rule:nonzero;"/>
            <rect x="1497" y="1269.4" width="23.6" height="147.8" style="fill:white;"/>
            <path d="M1595.3,1420.1C1586.7,1420.1 1579.1,1418.7 1572.4,1415.9C1565.7,1413.1 1560.1,1409.2 1555.4,1404.2C1550.8,1399.2 1547.3,1393.3 1544.8,1386.4C1542.4,1379.5 1541.2,1371.9 1541.2,1363.6C1541.2,1355.5 1542.4,1347.9 1544.8,1341C1547.2,1334.1 1550.7,1328.2 1555.4,1323.2C1560.1,1318.2 1565.7,1314.3 1572.4,1311.5C1579.1,1308.7 1586.7,1307.3 1595.3,1307.3C1603.9,1307.3 1611.5,1308.7 1618.2,1311.5C1624.9,1314.3 1630.5,1318.2 1635.2,1323.2C1639.8,1328.2 1643.3,1334.1 1645.8,1341C1648.2,1347.9 1649.4,1355.4 1649.4,1363.6C1649.4,1371.9 1648.2,1379.5 1645.8,1386.4C1643.4,1393.3 1639.9,1399.2 1635.2,1404.2C1630.6,1409.2 1624.9,1413.1 1618.2,1415.9C1611.4,1418.7 1603.8,1420.1 1595.3,1420.1ZM1595.3,1401.5C1600.5,1401.5 1605.1,1400.4 1609,1398.2C1612.9,1396 1616,1393.1 1618.5,1389.5C1621,1385.9 1622.8,1381.9 1624,1377.4C1625.2,1372.9 1625.8,1368.3 1625.8,1363.6C1625.8,1359.1 1625.2,1354.5 1624,1349.9C1622.8,1345.3 1621,1341.3 1618.5,1337.8C1616,1334.3 1612.8,1331.4 1609,1329.2C1605.1,1327 1600.6,1325.9 1595.3,1325.9C1590.1,1325.9 1585.5,1327 1581.6,1329.2C1577.7,1331.4 1574.6,1334.3 1572.1,1337.8C1569.6,1341.3 1567.8,1345.4 1566.6,1349.9C1565.4,1354.5 1564.8,1359 1564.8,1363.6C1564.8,1368.3 1565.4,1372.9 1566.6,1377.4C1567.8,1381.9 1569.6,1385.9 1572.1,1389.5C1574.6,1393.1 1577.8,1396 1581.6,1398.2C1585.5,1400.4 1590,1401.5 1595.3,1401.5Z" style="fill:white;fill-rule:nonzero;"/>
            <path d="M1758.5,1393.4C1758.5,1396.3 1758.9,1398.4 1759.6,1399.6C1760.4,1400.8 1761.8,1401.5 1764,1401.5L1766.5,1401.5C1767.5,1401.5 1768.6,1401.4 1769.8,1401.1L1769.8,1417.4C1769,1417.7 1767.9,1418 1766.6,1418.3C1765.3,1418.6 1763.9,1419 1762.6,1419.2C1761.2,1419.5 1759.8,1419.7 1758.5,1419.8C1757.2,1419.9 1755.9,1420 1755,1420C1750.2,1420 1746.2,1419 1743,1417.1C1739.8,1415.2 1737.8,1411.8 1736.8,1407C1732.1,1411.5 1726.3,1414.9 1719.5,1416.9C1712.7,1419 1706.1,1420 1699.7,1420C1694.9,1420 1690.2,1419.3 1685.8,1418C1681.4,1416.7 1677.5,1414.8 1674.1,1412.2C1670.7,1409.6 1668,1406.4 1666,1402.5C1664,1398.6 1663,1394 1663,1388.7C1663,1382.1 1664.2,1376.7 1666.6,1372.6C1669,1368.5 1672.2,1365.2 1676.1,1362.9C1680,1360.6 1684.4,1358.9 1689.3,1357.8C1694.2,1356.8 1699.1,1356 1704.1,1355.4C1708.4,1354.6 1712.4,1354 1716.3,1353.6C1720.2,1353.3 1723.6,1352.7 1726.5,1351.8C1729.4,1350.9 1731.8,1349.7 1733.5,1348C1735.2,1346.3 1736.1,1343.7 1736.1,1340.2C1736.1,1337.2 1735.4,1334.7 1733.9,1332.7C1732.4,1330.8 1730.7,1329.3 1728.5,1328.3C1726.4,1327.3 1724,1326.6 1721.4,1326.2C1718.8,1325.9 1716.3,1325.7 1713.9,1325.7C1707.3,1325.7 1701.8,1327.1 1697.6,1329.8C1693.3,1332.6 1690.9,1336.8 1690.4,1342.6L1666.8,1342.6C1667.2,1335.7 1668.9,1330 1671.8,1325.4C1674.7,1320.8 1678.4,1317.2 1682.9,1314.4C1687.4,1311.6 1692.4,1309.7 1698.1,1308.6C1703.8,1307.5 1709.6,1306.9 1715.5,1306.9C1720.7,1306.9 1725.9,1307.5 1731,1308.6C1736.1,1309.7 1740.7,1311.5 1744.8,1314C1748.9,1316.5 1752.1,1319.7 1754.6,1323.6C1757.1,1327.5 1758.3,1332.3 1758.3,1338L1758.5,1393.4ZM1735,1363.6C1731.4,1365.9 1727,1367.4 1721.8,1367.8C1716.6,1368.3 1711.3,1369 1706.1,1370C1703.6,1370.4 1701.2,1371 1698.9,1371.8C1696.6,1372.6 1694.5,1373.6 1692.7,1374.9C1690.9,1376.2 1689.5,1377.9 1688.5,1380.1C1687.5,1382.2 1686.9,1384.8 1686.9,1387.9C1686.9,1390.5 1687.7,1392.7 1689.2,1394.5C1690.7,1396.3 1692.5,1397.7 1694.7,1398.7C1696.8,1399.7 1699.2,1400.5 1701.7,1400.9C1704.2,1401.3 1706.6,1401.5 1708.6,1401.5C1711.2,1401.5 1714,1401.2 1717.1,1400.5C1720.1,1399.8 1723,1398.6 1725.7,1397C1728.4,1395.3 1730.6,1393.2 1732.4,1390.7C1734.2,1388.2 1735.1,1385 1735.1,1381.3L1735,1363.6Z" style="fill:white;fill-rule:nonzero;"/>
            <path d="M1884.8,1417.2L1862.5,1417.2L1862.5,1402.7L1862.1,1402.7C1858.9,1408.9 1854.3,1413.4 1848.2,1416C1842.1,1418.6 1835.7,1420 1829,1420C1820.6,1420 1813.2,1418.5 1807,1415.6C1800.7,1412.6 1795.5,1408.6 1791.4,1403.5C1787.3,1398.4 1784.2,1392.4 1782.1,1385.4C1780,1378.4 1779,1371 1779,1362.9C1779,1353.2 1780.3,1344.9 1782.9,1337.9C1785.5,1330.9 1789,1325.1 1793.4,1320.5C1797.7,1315.9 1802.7,1312.6 1808.3,1310.5C1813.9,1308.4 1819.6,1307.3 1825.4,1307.3C1828.7,1307.3 1832.1,1307.6 1835.5,1308.2C1838.9,1308.8 1842.3,1309.8 1845.4,1311.2C1848.6,1312.6 1851.5,1314.3 1854.2,1316.5C1856.9,1318.6 1859.1,1321.2 1860.9,1324.1L1861.3,1324.1L1861.3,1269.5L1884.9,1269.5L1884.8,1417.2ZM1802.4,1364.8C1802.4,1369.4 1803,1373.8 1804.2,1378.3C1805.4,1382.7 1807.2,1386.6 1809.6,1390.1C1812,1393.6 1815.1,1396.3 1818.8,1398.4C1822.5,1400.5 1826.9,1401.5 1832,1401.5C1837.2,1401.5 1841.8,1400.4 1845.6,1398.2C1849.4,1396 1852.5,1393.1 1854.9,1389.5C1857.3,1385.9 1859.1,1381.9 1860.3,1377.4C1861.5,1372.9 1862.1,1368.3 1862.1,1363.6C1862.1,1351.7 1859.4,1342.5 1854.1,1335.9C1848.8,1329.3 1841.6,1326 1832.5,1326C1827,1326 1822.3,1327.1 1818.5,1329.4C1814.7,1331.7 1811.6,1334.6 1809.2,1338.3C1806.8,1342 1805.1,1346.1 1804,1350.7C1802.9,1355.3 1802.4,1360 1802.4,1364.8Z" style="fill:white;fill-rule:nonzero;"/>
            <path d="M1928.2,1382.8C1928.9,1389.7 1931.5,1394.5 1936.1,1397.3C1940.7,1400.1 1946.1,1401.4 1952.4,1401.4C1954.6,1401.4 1957.1,1401.2 1960,1400.9C1962.8,1400.6 1965.5,1399.9 1968,1398.9C1970.5,1397.9 1972.5,1396.5 1974.1,1394.7C1975.7,1392.8 1976.4,1390.4 1976.3,1387.4C1976.2,1384.4 1975.1,1381.9 1973,1379.9C1970.9,1378 1968.3,1376.4 1965,1375.2C1961.8,1374 1958.1,1373 1953.9,1372.2C1949.8,1371.4 1945.6,1370.5 1941.3,1369.5C1936.9,1368.5 1932.6,1367.4 1928.6,1366C1924.5,1364.6 1920.9,1362.8 1917.6,1360.4C1914.4,1358.1 1911.8,1355.1 1909.8,1351.4C1907.9,1347.7 1906.9,1343.2 1906.9,1337.8C1906.9,1332 1908.3,1327.1 1911.1,1323.2C1913.9,1319.3 1917.5,1316.1 1921.9,1313.7C1926.2,1311.3 1931.1,1309.6 1936.4,1308.6C1941.7,1307.6 1946.8,1307.2 1951.6,1307.2C1957.1,1307.2 1962.4,1307.8 1967.4,1309C1972.4,1310.2 1977,1312.1 1981.1,1314.7C1985.2,1317.3 1988.6,1320.7 1991.2,1324.9C1993.9,1329.1 1995.6,1334.2 1996.3,1340.1L1971.7,1340.1C1970.6,1334.4 1968,1330.7 1963.9,1328.7C1959.8,1326.8 1955.2,1325.8 1949.9,1325.8C1948.2,1325.8 1946.3,1325.9 1944,1326.2C1941.7,1326.5 1939.6,1327 1937.6,1327.8C1935.6,1328.6 1933.9,1329.7 1932.5,1331.1C1931.1,1332.5 1930.4,1334.4 1930.4,1336.8C1930.4,1339.7 1931.4,1342 1933.4,1343.8C1935.4,1345.6 1938,1347.1 1941.3,1348.2C1944.5,1349.4 1948.2,1350.4 1952.4,1351.2C1956.5,1352 1960.8,1352.9 1965.2,1353.9C1969.5,1354.9 1973.7,1356 1977.8,1357.4C1981.9,1358.8 1985.6,1360.6 1988.9,1363C1992.1,1365.3 1994.8,1368.3 1996.8,1371.9C1998.8,1375.5 1999.8,1379.9 1999.8,1385.1C1999.8,1391.4 1998.3,1396.8 1995.5,1401.2C1992.6,1405.6 1988.8,1409.2 1984.2,1412C1979.6,1414.8 1974.4,1416.8 1968.8,1418C1963.1,1419.2 1957.6,1419.9 1952,1419.9C1945.2,1419.9 1939,1419.1 1933.3,1417.6C1927.6,1416.1 1922.6,1413.8 1918.4,1410.7C1914.2,1407.6 1910.9,1403.7 1908.5,1399.1C1906.1,1394.5 1904.8,1389 1904.7,1382.6L1928.2,1382.8Z" style="fill:white;fill-rule:nonzero;"/>
        </g>
    </g>
</svg>
