<svg enable-background="new 0 0 3366 1568" viewBox="0 0 3366 1568" xmlns="http://www.w3.org/2000/svg" xmlns:xlink="http://www.w3.org/1999/xlink"><clipPath id="a"><path d="m1433.3 1019.8h1513.4v241.5h-1513.4z"/></clipPath><path d="m332 639.1c-15.9-15.8-37.7-25.5-61.9-25.5h-87.8c-48.4 0-87.8 39.4-87.8 87.8v43.9c0 24.3 19.6 43.9 43.9 43.9h90.4c8.7-65.1 47.9-119.8 103.2-150.1m345.8 241.3c-3.2-1.6-6.3-3.6-9.3-5.3-11.2 6.6-21 13.4-37.7 13.4-15 0-29.4-6.3-39.6-17.3-25.2-27.2-44.4-60.2-55.2-95.5-14.7-47.3 34.2-68.2 35.4-69-.1-3.6-.1-7.1 0-10.7l-10.8-6.3c-5.2-3-9.6-6.9-13.4-11.1-4.5.3-8.9.8-13.4.8-33.7 0-65.3-8.2-94-21.9h-11.4c-87.4 0-158.2 70.8-158.2 158v39.5c0 36.4 29.5 65.8 65.8 65.8h350.3c-5.1-8.2-8.5-17.6-8.5-27.8zm-144.3-266.8c2.6 0 5.1-.7 7.7-.8 11.4-29.8 28.1-57.8 49.8-81.2 10.2-11 24.6-17.3 39.6-17.3 9.5 0 18.8 2.5 26.9 7.3l10.8 6.3c1.1-.7 2.2-1.2 3.3-1.9 9.6-20 15.4-42.2 15.4-65.8 0-84.9-68.7-153.6-153.6-153.6s-153.5 68.6-153.5 153.5c-.1 84.8 68.7 153.5 153.6 153.5m-307.3-43.9c48.4 0 87.8-39.4 87.8-87.8s-39.4-87.8-87.8-87.8-87.8 39.4-87.8 87.8 39.4 87.8 87.8 87.8m548.7 198.2c-36.8 0-66.5-29.9-66.5-66.5s29.9-66.5 66.5-66.5 66.5 29.9 66.5 66.5-29.7 66.5-66.5 66.5m157.1-37.3c3.6-19.3 3.6-39.1 0-58.4l35.4-20.4c4.1-2.3 5.9-7.1 4.5-11.7-9.2-29.6-25-56.5-45.5-78.7-3.2-3.4-8.2-4.3-12.3-1.9l-35.4 20.4c-15-12.8-32.1-22.6-50.6-29.2v-40.9c0-4.7-3.3-8.8-7.8-9.7-30.6-6.9-61.7-6.6-90.8 0-4.5 1-7.8 5.1-7.8 9.7v40.9c-18.5 6.6-35.7 16.5-50.6 29.2l-35.4-20.4c-4-2.3-9.2-1.5-12.3 1.9-20.6 22.2-36.4 49.1-45.5 78.7-1.4 4.5.5 9.3 4.5 11.7l35.4 20.4c-3.6 19.3-3.6 39.1 0 58.4l-35.6 20.4c-4.1 2.3-5.9 7.1-4.5 11.7 9.2 29.6 25 56.4 45.5 78.7 3.2 3.4 8.2 4.3 12.3 1.9l35.4-20.4c15 12.8 32.1 22.6 50.6 29.2v40.9c0 4.7 3.3 8.8 7.8 9.7 30.6 6.9 61.7 6.6 90.8 0 4.5-1 7.8-5.1 7.8-9.7v-40.9c18.5-6.6 35.7-16.5 50.6-29.2l35.4 20.4c4 2.3 9.2 1.5 12.3-1.9 20.6-22.2 36.4-49.1 45.5-78.7 1.4-4.5-.5-9.3-4.5-11.7z" fill="#363b3f"/><path d="m1222.9 446.2h139.7l55.6 327 55-327h138.4v467.4h-85.5l8-405.2-75.5 405.2h-80.8l-76.7-405.2 6.6 405.2h-84.8z" fill="#363b3f"/><path d="m1749.2 705.7h56.3v-41.7c0-9.3 0-33.8-27.2-33.8-20.5 0-29.1 12.6-29.1 33.8zm-.6 111.2c0 14.6 0 41.7 29.1 41.7 9.3 0 16.5-4 21.2-9.9 6-7.9 6.6-11.9 6.6-47h76.8v27.1c0 73.5-54.3 91.4-103.3 91.4-77.5 0-108.6-40.4-108.6-108.6v-143c0-42.4 14.6-66.2 36.4-81.4 19.9-13.9 47.7-19.9 71.5-19.9 31.1 0 61.6 9.9 82.1 29.8 19.2 19.9 23.2 47.7 23.2 67.5v96.7h-135.1v55.6z" fill="#363b3f"/><path d="m1936.6 574.6h79.4v22.5c15.2-13.2 33.8-29.1 66.2-29.1 35.1 0 53 19.9 64.2 33.8 19.9-17.9 39.1-33.8 77.5-33.8 22.5 0 39.1 9.3 49 19.2 15.9 15.9 19.2 35.1 19.2 57.6v268.8h-78.8v-250.3c0-15.9 0-39.7-28.5-39.7-21.8 0-31.1 15.9-31.1 43v247h-78.8v-249c0-17.2 0-42.4-29.1-42.4-21.8 0-30.5 16.5-30.5 40.4v250.9h-78.8v-338.9z" fill="#363b3f"/><path d="m2492 666.6c0-11.9 0-38.4-29.1-38.4-34.4 0-34.4 27.1-34.4 43.7v137c0 21.8 2 45 32.4 45 31.1 0 31.1-29.8 31.1-45zm-141.7-221.1h78.8v155.6c35.8-33.1 62.9-33.8 70.8-33.8 27.1 0 71.5 19.2 71.5 79.4v191.3c0 72.2-51 82.8-72.2 82.8-41.7 0-59.6-24.5-70.2-38.4v31.1h-78.8v-468z" fill="#363b3f"/><path d="m2701.2 705.7h56.3v-41.7c0-9.3 0-33.8-27.2-33.8-20.5 0-29.1 12.6-29.1 33.8zm-.7 111.2c0 14.6 0 41.7 29.1 41.7 9.3 0 16.5-4 21.2-9.9 6-7.9 6.6-11.9 6.6-47h76.8v27.1c0 73.5-54.3 91.4-103.3 91.4-77.5 0-108.6-40.4-108.6-108.6v-143c0-42.4 14.6-66.2 36.4-81.4 19.9-13.9 47.7-19.9 71.5-19.9 31.1 0 61.6 9.9 82.1 29.8 19.2 19.9 23.2 47.7 23.2 67.5v96.7h-135.1v55.6z" fill="#363b3f"/><path d="m2888.5 574.6h78.8l-.7 43c13.2-23.8 31.1-50.3 77.5-49v78.1c-6-2-13.9-5.3-26.5-5.3-51 0-51 46.3-51 72.8v199.3h-78.1z" fill="#363b3f"/><path d="m3064.8 794.4h72.8c0 49 0 69.5 31.1 69.5 17.2 0 30.5-7.9 30.5-37.1 0-19.9-1.3-29.1-23.2-44.4l-65.5-46.3c-4.6-3.3-16.5-14.6-21.8-21.2-8.6-9.9-18.5-23.8-18.5-60.2 0-71.5 46.3-87.4 102-87.4 68.9 0 96.7 29.8 96.7 78.1v37.1h-68.2c0-38.4 0-60.9-28.5-60.9-11.2 0-27.8 2-27.8 30.5 0 9.3.7 21.8 22.5 37.1l72.2 51c4.6 3.3 19.2 17.9 21.8 22.5 9.3 13.2 11.2 31.1 11.2 53 0 43 0 104.6-104.6 104.6-84.7 0-102.6-43-102.6-90v-35.9z" fill="#363b3f"/><path clip-path="url(#a)" d="m1719.2 1125.3c0-24.6 20-44.6 44.6-44.6s44.6 20 44.6 44.6v105.7c0 16.8 13.6 30.4 30.4 30.4s30.4-13.6 30.4-30.4v-105.7c0-58.1-47.3-105.4-105.4-105.4-29.3 0-55.9 12.1-75 31.5 18.8 19 30.4 45.1 30.4 73.9z" fill="#48c1c2"/><path clip-path="url(#a)" d="m1658.4 1125.3c0-28.8 11.6-54.9 30.4-74-19.1-19.4-45.7-31.5-75-31.5s-55.9 12.1-75 31.5c18.7 19 30.3 45 30.4 73.8.1-24.5 20.1-44.4 44.6-44.4 24.6-.1 44.6 20 44.6 44.6z" fill="#3ec3d5"/><path clip-path="url(#a)" d="m1719.2 1231v-105.7c0-28.8-11.6-54.9-30.4-74-18.8 19-30.4 45.2-30.4 74v105.7c0 8.4 3.4 16 8.9 21.5s13.1 8.9 21.5 8.9c16.8 0 30.4-13.6 30.4-30.4" fill="#02a9b2"/><path clip-path="url(#a)" d="m1463.7 1019.8c-16.8 0-30.4 13.6-30.4 30.4s13.6 30.4 30.4 30.4c24.5 0 44.5 19.9 44.6 44.4.1-28.7 11.7-54.8 30.4-73.8-19.1-19.3-45.6-31.4-75-31.4" fill="#1182c5"/><path clip-path="url(#a)" d="m1508.4 1125.1v.2 105.7c0 16.8 13.6 30.4 30.4 30.4 5.2 0 10.2-1.3 14.5-3.7 9.5-5.1 15.9-15.2 15.9-26.7v-105.7c0-.1 0-.2 0-.2-.1-28.7-11.7-54.8-30.4-73.8-18.8 19-30.4 45-30.4 73.8" fill="#016cb2"/><path clip-path="url(#a)" d="m1494.1 1050.2c0 16.8-13.6 30.4-30.4 30.4s-30.4-13.6-30.4-30.4 13.6-30.4 30.4-30.4 30.4 13.6 30.4 30.4" fill="#1a4698"/><path clip-path="url(#a)" d="m1569.1 1231c0 16.8-13.6 30.4-30.4 30.4s-30.4-13.6-30.4-30.4 13.6-30.4 30.4-30.4 30.4 13.6 30.4 30.4" fill="#00569a"/><path clip-path="url(#a)" d="m1719.2 1231c0 16.8-13.6 30.4-30.4 30.4s-30.4-13.6-30.4-30.4 13.6-30.4 30.4-30.4 30.4 13.6 30.4 30.4" fill="#028c9d"/><path clip-path="url(#a)" d="m1869.3 1231c0 16.8-13.6 30.4-30.4 30.4s-30.4-13.6-30.4-30.4 13.6-30.4 30.4-30.4 30.4 13.6 30.4 30.4" fill="#00aba3"/><g fill="#1a4698"><path clip-path="url(#a)" d="m2038.8 1114.1c-11 0-21.7 5-27.3 17.1-3.9-12.4-13.6-17.1-26-17.1-8.8 0-18.2 3.8-22.8 12.9v-4.9c0-3.6-2.9-6.5-6.5-6.5s-6.5 2.9-6.5 6.5v65.9c0 3.6 2.9 6.5 6.5 6.5s6.5-2.9 6.5-6.5v-39c0-12.6 8.2-22.6 20.9-22.6 13.8 0 21 9.6 21 22.6v39.2c0 3.5 2.8 6.3 6.3 6.3s6.3-2.8 6.3-6.3v-39.2c0-12.6 8.5-22.6 21.2-22.6 14 0 20.3 9.3 20.3 22.3v39.5c0 3.5 2.8 6.3 6.3 6.3s6.4-2.8 6.4-6.3v-39.5c.1-21.1-10.9-34.6-32.6-34.6"/><path clip-path="url(#a)" d="m2264.4 1114.1c-11 0-21.7 5-27.3 17.1-3.9-12.4-13.7-17.1-26.1-17.1-8.8 0-18.2 3.8-22.8 12.9v-4.9c0-3.6-2.9-6.5-6.5-6.5s-6.5 2.9-6.5 6.5v65.9c0 3.6 2.9 6.5 6.5 6.5s6.5-2.9 6.5-6.5v-39c0-12.6 8.2-22.6 20.9-22.6 13.8 0 21 9.6 21 22.6v39.2c0 3.5 2.8 6.3 6.3 6.3s6.3-2.8 6.3-6.3v-39.2c0-12.6 8.5-22.6 21.2-22.6 14 0 20.2 9.3 20.2 22.3v39.5c0 3.5 2.8 6.3 6.3 6.3s6.4-2.8 6.4-6.3v-39.5c.2-21.1-10.8-34.6-32.4-34.6"/><path clip-path="url(#a)" d="m2156.6 1159.3c3.2 0 5.8-2.6 5.8-5.8 0-27.2-17-39.7-39.1-39.7-23.4 0-40.2 16.8-40.2 40.2 0 24.6 16.8 40.5 40.8 40.5 11.3 0 24.1-4.1 31.8-12 1.2-1.2 1.7-2.5 1.7-4.1 0-3.2-2.6-5.8-5.8-5.8-1.6 0-3.1.7-4.1 1.7-5.5 5.3-15.2 8.3-23.3 8.3-14.9 0-26.7-8.9-28.1-23.2zm-60.5-10.8c2.2-14.9 14-23.1 27.5-23.1 15.2 0 25.5 8.1 26.2 23.1z"/><path clip-path="url(#a)" d="m2476.5 1159.3c3.2 0 5.8-2.6 5.8-5.8 0-27.2-17-39.7-39.1-39.7-23.4 0-40.2 16.8-40.2 40.2 0 24.6 16.8 40.5 40.8 40.5 11.3 0 24.1-4.1 31.8-12 1.2-1.2 1.7-2.5 1.7-4.1 0-3.2-2.6-5.8-5.8-5.8-1.6 0-3.1.7-4.1 1.7-5.5 5.3-15.2 8.3-23.3 8.3-14.9 0-26.7-8.9-28.1-23.2zm-60.4-10.8c2.2-14.9 14-23.1 27.5-23.1 15.2 0 25.5 8.1 26.2 23.1z"/><path clip-path="url(#a)" d="m2788.6 1159.3c3.2 0 5.8-2.6 5.8-5.8 0-27.2-17-39.7-39.1-39.7-23.4 0-40.2 16.8-40.2 40.2 0 24.6 16.8 40.5 40.8 40.5 11.3 0 24.1-4.1 31.8-12 1.2-1.2 1.7-2.5 1.7-4.1 0-3.2-2.6-5.8-5.8-5.8-1.6 0-3.1.7-4.1 1.7-5.5 5.3-15.2 8.3-23.3 8.3-14.9 0-26.7-8.9-28.1-23.2zm-60.4-10.8c2.2-14.9 14-23.1 27.5-23.1 15.2 0 25.5 8.1 26.2 23.1z"/><path clip-path="url(#a)" d="m2355.1 1114.1c-10.8 0-23.5 4.9-28.9 15.4v-39.9c0-3.5-2.9-6.4-6.4-6.4s-6.4 2.9-6.4 6.4v98.4c0 3.5 2.9 6.4 6.4 6.4s6.4-2.9 6.4-6.4v-8.5c5.8 10.2 17.3 14.8 28.7 14.8 22.3 0 39.6-14.4 39.6-40 0-26.3-17.3-40.2-39.4-40.2m-1 68.1c-15.4 0-27.3-11.3-27.3-28.1 0-16.6 12.1-28.1 27.3-28.1 15.1 0 27.3 9.9 27.3 28.2 0 17.8-12.2 28-27.3 28"/><path clip-path="url(#a)" d="m2603 1114.1c-11.5 0-22.9 4.5-28.7 14.7v-8.5c0-3.5-2.8-6.4-6.3-6.4s-6.4 2.9-6.4 6.5v103.1c0 3.5 2.8 6.4 6.4 6.4s6.4-2.9 6.4-6.4 0-44.5 0-44.5c5.3 10.5 18 15.4 28.9 15.4 22.1 0 39.4-14 39.4-40.2-.1-25.7-17.4-40.1-39.7-40.1m-.8 68.2c-15.2 0-27.3-11.5-27.3-28.1 0-16.8 11.9-28.1 27.3-28.1 15.1 0 27.3 10.2 27.3 27.9 0 18.5-12.2 28.3-27.3 28.3"/><path clip-path="url(#a)" d="m2546.9 1117.1c-4.4-2.1-8.7-3.1-13.8-3.1-9.6 0-19.1 3.4-24.2 11.9v-5.6c0-3.4-2.8-6.3-6.3-6.3s-6.3 2.8-6.3 6.3v67.8c0 3.5 2.9 6.4 6.4 6.4 3.6 0 6.4-2.9 6.4-6.4s0-38.3 0-38.3c0-14.7 8.2-22.9 22.9-23.2 3.5 0 6.5.7 9.4 2 .8.4 1.7.6 2.6.6 3.5 0 6.3-2.8 6.3-6.3.2-2.6-1.4-4.9-3.4-5.8"/><path clip-path="url(#a)" d="m2707.5 1117.1c-4.4-2.1-8.7-3.1-13.8-3.1-9.6 0-19.2 3.4-24.2 11.9v-5.6c0-3.4-2.8-6.3-6.3-6.3s-6.3 2.8-6.3 6.3v67.8c0 3.5 2.9 6.4 6.4 6.4 3.6 0 6.4-2.9 6.4-6.4s0-38.3 0-38.3c0-14.7 8.2-22.9 22.9-23.2 3.5 0 6.5.7 9.4 2 .8.4 1.7.6 2.6.6 3.5 0 6.3-2.8 6.3-6.3.2-2.6-1.4-4.9-3.4-5.8"/><path clip-path="url(#a)" d="m2837.5 1147.5c-9.7-1.1-19.3-3.1-19.5-11-.2-8.3 8.5-12.6 19.3-12.4 4.7 0 13.3 1.1 17.4 3.3l3.4 1.6c.8.4 1.7.6 2.6.6 3.3 0 5.9-2.6 5.9-5.9 0-2.5-1.6-4.7-3.8-5.5-1.2-.5-2.4-1-3.7-1.4-7-2.4-14.8-3.7-22-3.7-14.9-.2-31.9 6.8-31.7 23.4 0 16.5 16.3 20.1 31.2 22.1 12.1 1.3 21.7 3.8 21.5 12.4-.3 10.2-12.6 11.9-20.2 11.9-7 0-14.2-1.7-20.6-4.9-.9-.4-1.8-.7-2.8-.7-3.4 0-6.2 2.8-6.2 6.2 0 2.5 1.5 4.6 3.6 5.6h.1c.1 0 .1.1.2.1 8.1 3.8 15.7 5.5 25.4 5.5 17.6 0 32.8-7.4 33.1-23.4.4-19.2-18.9-21.9-33.2-23.8"/><path clip-path="url(#a)" d="m2913.4 1147.5c-9.7-1.1-19.3-3.1-19.5-11-.2-8.3 8.5-12.6 19.3-12.4 4.7 0 13.3 1.1 17.4 3.3l3.4 1.6c.8.4 1.7.6 2.6.6 3.3 0 5.9-2.6 5.9-5.9 0-2.5-1.6-4.7-3.8-5.5-1.2-.5-2.4-1-3.7-1.4-7-2.4-14.8-3.7-22-3.7-14.9-.2-31.9 6.8-31.7 23.4 0 16.5 16.3 20.1 31.2 22.1 12.1 1.3 21.7 3.8 21.5 12.4-.3 10.2-12.6 11.9-20.2 11.9-7 0-14.2-1.7-20.6-4.9-.9-.4-1.8-.7-2.8-.7-3.4 0-6.2 2.8-6.2 6.2 0 2.5 1.5 4.6 3.6 5.6h.1c.1 0 .1.1.2.1 8.1 3.8 15.7 5.5 25.5 5.5 17.6 0 32.8-7.4 33.1-23.4.3-19.2-19-21.9-33.3-23.8"/></g><path d="m1342.9 1226.7 12-29.9-28.3-63.8c-1.9-4.3.1-7.4 4.9-7.4h8c3.6 0 5.9 1.6 7.1 5l18.1 45.7 17.3-45.7c1.3-3.4 3.7-5 7.4-5h7.8c4.6 0 6.7 3 4.7 7.4l-41.4 96.2c-1.5 3.4-3.7 4.7-7.3 4.7h-5.5c-4.6.1-6.6-2.9-4.8-7.2z" fill="#8a8d90"/><path d="m1260.8 1189.6v5c0 4-2.2 6.2-6.2 6.2h-6.5c-4 0-6.4-2.2-6.4-6.2v-94.6c0-4 2.4-6.2 6.4-6.2h6.5c4 0 6.2 2.2 6.2 6.2v36.9c6.4-9.2 15.5-12.9 25.5-12.9 21.8 0 36.7 17.3 36.7 39.2s-15 39.2-36.7 39.2c-10 .1-19.2-3.6-25.5-12.8zm43.1-26.4c0-12.7-7.7-23.4-21.3-23.4-13 0-21.9 9.9-22.1 23.4.1 13.5 9 23.4 22.1 23.4 13.6 0 21.3-10.5 21.3-23.4z" fill="#8a8d90"/></svg>