<svg clip-rule="evenodd" fill-rule="evenodd" stroke-linejoin="round" stroke-miterlimit="2" viewBox="0 0 512 512" xmlns="http://www.w3.org/2000/svg"><path d="m512 256c0 88.224-71.775 160-160 160h-181.933l34.512 32.419c9.875 9.276 10.119 24.883.539 34.464l-10.775 10.775c-9.373 9.372-24.568 9.372-33.941 0l-92.686-92.686c-9.373-9.373-9.373-24.568 0-33.941l92.686-92.686c9.373-9.373 24.568-9.373 33.941 0l10.775 10.775c9.581 9.581 9.337 25.187-.539 34.464l-34.512 32.416h181.933c52.935 0 96-43.065 96-96 0-13.958-2.996-27.228-8.376-39.204-4.061-9.039-2.284-19.626 4.723-26.633l12.183-12.183c11.499-11.499 30.965-8.526 38.312 5.982 10.972 21.662 17.158 46.141 17.158 72.038zm-439.624 39.204c-5.38-11.976-8.376-25.246-8.376-39.204 0-52.935 43.065-96 96-96h181.933l-34.512 32.419c-9.875 9.276-10.119 24.883-.539 34.464l10.775 10.775c9.373 9.372 24.568 9.372 33.941 0l92.686-92.686c9.373-9.373 9.373-24.568 0-33.941l-92.686-92.686c-9.373-9.373-24.568-9.373-33.941 0l-10.775 10.775c-9.581 9.581-9.337 25.187.539 34.464l34.512 32.416h-181.933c-88.225 0-160 71.776-160 160 0 25.897 6.186 50.376 17.157 72.039 7.347 14.508 26.813 17.481 38.312 5.982l12.183-12.183c7.008-7.008 8.786-17.595 4.724-26.634z" fill="#fff" fill-rule="nonzero"/></svg>