<?xml version="1.0" encoding="UTF-8" standalone="no"?>
<!DOCTYPE svg PUBLIC "-//W3C//DTD SVG 1.1//EN" "http://www.w3.org/Graphics/SVG/1.1/DTD/svg11.dtd">
<svg width="100%" height="100%" viewBox="0 0 998 810" version="1.1" xmlns="http://www.w3.org/2000/svg" xmlns:xlink="http://www.w3.org/1999/xlink" xml:space="preserve" xmlns:serif="http://www.serif.com/" style="fill-rule:evenodd;clip-rule:evenodd;stroke-linejoin:round;stroke-miterlimit:2;">
    <g transform="matrix(1.92679,0,0,1.92679,11.2342,246.04)">
        <path d="M484.2,83.5L482.3,83.5L482.7,85.3C485.6,99.8 482.9,121.5 472,134.8C465.6,142.6 457.3,146.6 447.4,146.6C441.5,146.6 437,144 433.6,139.7L433.7,139.7C427.9,132.3 425.4,119.7 424.9,106.1L424.8,106.1C451,99.9 468.3,83.5 468.3,64.5C468.3,50.9 464.2,28.1 437.1,28.1C411.5,28.1 398.5,66.4 395.9,93C382.7,92.8 373.2,86.5 367.4,81C367.4,80.9 367.4,80.8 367.5,80.8L367.6,80.9C369.6,72.9 370.7,65.4 371,58.5L370.8,58.6C370.8,57.5 370.9,56.4 370.9,55.3C370.9,44.6 363.4,39.7 356.5,39.7C346.4,39.7 336.2,49.4 336.2,68C336.2,79.2 340.5,88.3 348.9,95.1C341.4,112.6 328.9,127.4 324.6,132.2C321.3,125 310.4,99.4 307.1,71.5C307.1,71.4 307.2,71.2 307.2,71.1C307.2,71.2 307.2,71.3 307.3,71.4C311.4,60.1 313.7,51 313.7,46.6C313.7,46.2 313.6,45.8 313.6,45.4L313.5,45.4C313,39.1 308.8,35.7 301.4,35.7C291.3,35.7 275.5,42.1 274.9,42.3L274,42.7L274.1,43.7C274.1,43.9 278.9,66.4 283.7,90.9C274.5,106.2 258.2,131.2 249.9,131.2C235,131.2 259.6,54.9 248.8,52.6C248.5,52.5 248.1,52.6 247.9,52.8C242.7,56 184.5,88.4 106.9,88.4C106.9,88.4 107,89.9 107.6,91.3C108.1,92.4 109.2,93.4 109.2,93.4C131.2,96.1 162.4,93.1 186.1,89.8C172.5,119.1 148.2,138.6 125.8,138.6C84,138.6 51.6,87.8 51.6,87.8C64.7,76.4 86.2,39 117,39C147.8,39 161.4,56 161.4,56L164.9,50.5C164.9,50.5 150.5,0 109.6,0C68.7,0 25.4,66.9 0,82.3C0,82.3 34.9,165 111.1,165C175.1,165 191.2,103.8 194.2,88.7C209.8,86.4 220.6,84.2 220.6,84.2C220.6,84.2 216.7,115.5 216.7,128.5C216.7,141.4 231,155.4 243,155.4C253.2,155.4 273.4,134.6 288.3,109.3L289,112.3C296.8,141.1 306.5,155.6 318,155.6C329.6,155.6 348.6,131.6 360.7,101.9C373.1,107.3 387.4,108.6 395.8,108.8L395.7,108.8C396.7,123.6 400.9,134.2 406.6,141.9C420.7,161 443.7,161.8 447.3,161.8C479.3,161.8 506.3,138.8 506.3,111.6C506.3,84 484.4,83.5 484.2,83.5ZM436.6,44.7C440.7,44.7 445.2,51.3 445.2,61.9C445.2,62.1 444.9,79 425.3,87.7C425.4,86 425.6,84.4 425.8,82.8C425.8,82.4 425.9,81.9 425.9,81.5C425.9,81.2 426,80.9 426,80.5C426.1,80.1 426.1,79.6 426.2,79.2C426.3,78.7 426.4,78.1 426.4,77.6C426.4,77.3 426.5,77 426.5,76.7L426.5,76.4C427,73.1 427.5,70 428.1,67C430.6,54 434,44.7 436.6,44.7Z" style="fill:white;fill-rule:nonzero;"/>
        <path d="M222.4,41.5C222.3,42.1 222.8,42.7 223.4,42.8C238.6,44.9 248.5,40.3 248.5,15.5C248.5,-7.6 224.7,10.6 220.3,14.1C219.9,14.4 219.8,15 220,15.5C224.4,24.6 223,37.6 222.4,41.5Z" style="fill:white;fill-rule:nonzero;"/>
    </g>
</svg>
