<?xml version="1.0" encoding="UTF-8" standalone="no"?>
<!DOCTYPE svg PUBLIC "-//W3C//DTD SVG 1.1//EN" "http://www.w3.org/Graphics/SVG/1.1/DTD/svg11.dtd">
<svg width="100%" height="100%" viewBox="0 0 512 512" version="1.1" xmlns="http://www.w3.org/2000/svg" xmlns:xlink="http://www.w3.org/1999/xlink" xml:space="preserve" xmlns:serif="http://www.serif.com/" style="fill-rule:evenodd;clip-rule:evenodd;stroke-linejoin:round;stroke-miterlimit:2;">
    <path d="M512,256C512,344.224 440.225,416 352,416L170.067,416L204.579,448.419C214.454,457.695 214.698,473.302 205.118,482.883L194.343,493.658C184.97,503.03 169.775,503.03 160.402,493.658L67.716,400.972C58.343,391.599 58.343,376.404 67.716,367.031L160.402,274.345C169.775,264.972 184.97,264.972 194.343,274.345L205.118,285.12C214.699,294.701 214.455,310.307 204.579,319.584L170.067,352L352,352C404.935,352 448,308.935 448,256C448,242.042 445.004,228.772 439.624,216.796C435.563,207.757 437.34,197.17 444.347,190.163L456.53,177.98C468.029,166.481 487.495,169.454 494.842,183.962C505.814,205.624 512,230.103 512,256ZM72.376,295.204C66.996,283.228 64,269.958 64,256C64,203.065 107.065,160 160,160L341.933,160L307.421,192.419C297.546,201.695 297.302,217.302 306.882,226.883L317.657,237.658C327.03,247.03 342.225,247.03 351.598,237.658L444.284,144.972C453.657,135.599 453.657,120.404 444.284,111.031L351.598,18.345C342.225,8.972 327.03,8.972 317.657,18.345L306.882,29.12C297.301,38.701 297.545,54.307 307.421,63.584L341.933,96L160,96C71.775,96 0,167.776 0,256C0,281.897 6.186,306.376 17.157,328.039C24.504,342.547 43.97,345.52 55.469,334.021L67.652,321.838C74.66,314.83 76.438,304.243 72.376,295.204Z" style="fill:white;fill-rule:nonzero;"/>
</svg>
