<svg clip-rule="evenodd" fill-rule="evenodd" stroke-linejoin="round" stroke-miterlimit="2" viewBox="0 0 998 810" xmlns="http://www.w3.org/2000/svg"><g fill="#fff" transform="matrix(.492642 0 0 .492642 6.40717 -97.47)"><g fill-rule="nonzero"><path d="m1266.4 844.1c-1.4-146-120.2-263.9-266.5-263.9s-265.1 117.9-266.5 263.9l122.2-122.2 41 41-89.4 89.4h385.4l-89.4-89.4 41-41zm-266.5-45.8-113.5-119.2h75.5v-58.7c0-15.2 17.1-27.7 38.1-27.7 20.9 0 38.1 12.5 38.1 27.7v58.7h75.5z"/><path d="m1033 996.6c-6.1-3.9-13.7-7.5-23-10.5-7.1-2.4-12.9-4.7-17.4-7-4.5-2.2-7.8-4.6-10-7.2s-3.2-5.8-3.2-9.4c0-2.9.9-5.6 2.7-8.2s4.7-4.7 8.5-6.4c3.9-1.7 8.9-2.5 15.1-2.6 5 0 9.5.4 13.6 1.1s7.7 1.6 10.8 2.6c3.1 1.1 5.7 2.1 7.6 3l6.9-20.7c-4.2-2.1-9.4-3.8-15.7-5.2-5.4-1.2-11.5-1.9-18.5-2.1v-21.5h-18.9v22.5c-3 .5-5.9 1.2-8.7 1.9-7 2.1-12.9 4.9-17.9 8.6-4.9 3.7-8.7 8-11.3 13s-3.9 10.4-4 16.3c0 6.8 1.8 12.8 5.3 18s8.5 9.7 15 13.6c6.5 3.8 14.2 7.2 23.1 10 6.7 2.1 12.1 4.4 16.3 6.7s7.2 4.8 9.1 7.6c1.9 2.7 2.9 5.9 2.9 9.5 0 3.9-1.2 7.3-3.4 10.2s-5.5 5.2-9.8 6.8-9.6 2.4-15.7 2.5c-5 0-9.9-.5-14.6-1.3s-9.1-1.9-13.2-3.3-7.7-2.9-10.8-4.5l-6.6 21.6c3 1.7 6.8 3.1 11.4 4.5s9.7 2.5 15.2 3.3 11.2 1.2 16.9 1.3h1v22.2h18.9v-24c2.4-.5 4.7-1 6.9-1.7 7.6-2.3 13.9-5.4 18.9-9.4s8.7-8.5 11.2-13.7 3.7-10.6 3.7-16.4c0-6.8-1.5-12.8-4.5-18-3.2-5.1-7.7-9.7-13.8-13.7z"/></g><g><g fill-rule="nonzero"><path d="m23.6 1369.8c0 4.1.6 8.1 1.8 12s2.9 7.2 5.3 10.1c2.3 2.9 5.3 5.2 8.9 6.9s7.9 2.6 12.8 2.6c6.9 0 12.4-1.5 16.7-4.4 4.2-3 7.3-7.4 9.4-13.3h22.3c-1.2 5.8-3.4 11-6.4 15.5-3 4.6-6.7 8.4-11 11.5s-9.1 5.5-14.4 7c-5.3 1.6-10.9 2.4-16.7 2.4-8.4 0-15.9-1.4-22.3-4.1-6.5-2.8-12-6.6-16.5-11.6s-7.9-10.9-10.1-17.8c-2.3-6.9-3.4-14.5-3.4-22.8 0-7.6 1.2-14.8 3.6-21.6s5.9-12.8 10.3-18 9.9-9.3 16.2-12.3 13.5-4.6 21.5-4.6c8.4 0 16 1.8 22.7 5.3s12.2 8.2 16.7 14c4.4 5.8 7.6 12.5 9.6 20s2.5 15.3 1.6 23.3zm55-15.5c-.3-3.7-1.1-7.3-2.4-10.8-1.3-3.4-3.1-6.4-5.4-9-2.3-2.5-5-4.6-8.3-6.2-3.2-1.6-6.9-2.4-10.9-2.4-4.1 0-7.9.7-11.3 2.2-3.4 1.4-6.3 3.5-8.7 6-2.4 2.6-4.3 5.6-5.8 9-1.5 3.5-2.2 7.2-2.4 11.2z"/><path d="m209.8 1393.4c0 2.9.4 5 1.1 6.2.8 1.2 2.2 1.9 4.4 1.9h2.5c1 0 2.1-.1 3.3-.4v16.3c-.8.3-1.9.6-3.2.9s-2.7.7-4 .9c-1.4.3-2.8.5-4.1.6s-2.6.2-3.5.2c-4.8 0-8.8-1-12-2.9s-5.2-5.3-6.2-10.1c-4.7 4.5-10.4 7.9-17.3 9.9-6.8 2.1-13.4 3.1-19.8 3.1-4.8 0-9.5-.7-13.9-2s-8.3-3.2-11.7-5.8-6.1-5.8-8.1-9.7-3-8.5-3-13.8c0-6.6 1.2-12 3.6-16.1s5.6-7.4 9.5-9.7 8.3-4 13.2-5.1c4.9-1 9.8-1.8 14.8-2.4 4.3-.8 8.3-1.4 12.2-1.8 3.9-.3 7.3-.9 10.2-1.8 3-.8 5.3-2.1 7-3.8s2.6-4.3 2.6-7.8c0-3-.7-5.5-2.2-7.5-1.5-1.9-3.2-3.4-5.4-4.4-2.1-1-4.5-1.7-7.1-2.1-2.6-.3-5.1-.5-7.5-.5-6.6 0-12.1 1.4-16.3 4.1-4.3 2.8-6.7 7-7.2 12.8h-23.6c.4-6.9 2.1-12.6 5-17.2s6.6-8.2 11.1-11 9.6-4.7 15.2-5.8c5.7-1.1 11.5-1.7 17.4-1.7 5.2 0 10.4.6 15.5 1.7s9.7 2.9 13.8 5.4 7.3 5.7 9.8 9.6 3.7 8.7 3.7 14.4zm-23.6-29.8c-3.6 2.3-8 3.8-13.2 4.2-5.2.5-10.5 1.2-15.7 2.2-2.5.4-4.9 1-7.2 1.8s-4.4 1.8-6.2 3.1-3.2 3-4.2 5.2c-1 2.1-1.6 4.7-1.6 7.8 0 2.6.8 4.8 2.3 6.6s3.3 3.2 5.5 4.2c2.1 1 4.5 1.8 7 2.2s4.9.6 6.9.6c2.6 0 5.5-.3 8.5-1s5.9-1.9 8.6-3.5c2.7-1.7 4.9-3.8 6.7-6.3s2.7-5.7 2.7-9.4z"/><path d="m253.1 1382.8c.7 6.9 3.3 11.7 7.9 14.5s10 4.1 16.3 4.1c2.2 0 4.7-.2 7.6-.5 2.8-.3 5.5-1 8-2s4.5-2.4 6.1-4.2c1.6-1.9 2.3-4.3 2.2-7.3s-1.2-5.5-3.3-7.5c-2.1-1.9-4.7-3.5-8-4.7-3.2-1.2-6.9-2.2-11.1-3s-8.3-1.7-12.6-2.7c-4.4-1-8.7-2.1-12.7-3.5-4.1-1.4-7.7-3.2-11-5.6-3.2-2.3-5.8-5.3-7.8-9-1.9-3.7-2.9-8.2-2.9-13.6 0-5.8 1.4-10.7 4.2-14.6s6.4-7.1 10.8-9.5c4.3-2.4 9.2-4.1 14.5-5.1s10.4-1.4 15.2-1.4c5.5 0 10.8.6 15.8 1.8s9.6 3.1 13.7 5.7 7.5 6 10.1 10.2c2.7 4.2 4.4 9.3 5.1 15.2h-24.6c-1.1-5.7-3.7-9.4-7.8-11.4-4.1-1.9-8.7-2.9-14-2.9-1.7 0-3.6.1-5.9.4s-4.4.8-6.4 1.6-3.7 1.9-5.1 3.3c-1.4 1.5-2.1 3.3-2.1 5.7 0 2.9 1 5.2 3 7s4.6 3.3 7.9 4.4c3.2 1.2 6.9 2.2 11.1 3 4.1.8 8.4 1.7 12.8 2.7 4.3 1 8.5 2.1 12.6 3.5s7.8 3.2 11.1 5.6c3.2 2.3 5.9 5.3 7.9 8.9s3 8 3 13.2c0 6.3-1.5 11.7-4.3 16.1-2.9 4.4-6.7 8-11.3 10.8s-9.8 4.8-15.4 6c-5.7 1.2-11.2 1.9-16.8 1.9-6.8 0-13-.8-18.7-2.3s-10.7-3.8-14.9-6.9-7.5-7-9.9-11.6-3.7-10.1-3.8-16.5z"/><path d="m330.9 1310.2h25.9l27.9 79.9h.4l27.1-79.9h24.6l-41.5 112.8c-1.9 4.8-3.8 9.4-5.7 13.9-1.9 4.4-4.1 8.3-6.8 11.7s-6 6.1-10 8.1-9.1 3-15.3 3c-5.5 0-11-.4-16.3-1.2v-19.9c1.9.3 3.8.6 5.6.9s3.7.5 5.6.5c2.8 0 5-.3 6.8-1s3.3-1.7 4.4-3c1.2-1.3 2.2-2.9 3-4.7s1.6-3.9 2.3-6.2l2.7-8.3z"/><path d="m532 1417.2v-20.3h-.4c-1.4 3.5-3.4 6.6-6.1 9.5s-5.8 5.4-9.2 7.3c-3.5 2-7.1 3.6-11.1 4.7-3.9 1.1-7.8 1.7-11.7 1.7-8.1 0-15.2-1.5-21.2-4.4-6-3-11-7-15-12.2s-7-11.2-8.9-18-2.9-14-2.9-21.6 1-14.8 2.9-21.6 4.9-12.8 8.9-18 9-9.3 15-12.3 13.1-4.6 21.2-4.6c4 0 7.9.5 11.7 1.4 3.8 1 7.3 2.4 10.7 4.4 3.3 2 6.2 4.4 8.8 7.3 2.5 2.9 4.5 6.3 5.9 10.1h.4v-61.3h13v147.8zm-71.5-37c1.3 5.5 3.4 10.3 6.2 14.6s6.4 7.8 10.9 10.4c4.4 2.7 9.7 4 15.9 4 6.9 0 12.7-1.3 17.5-4s8.6-6.2 11.6-10.4c3-4.3 5.1-9.1 6.4-14.6s2-10.9 2-16.5c0-5.5-.7-11-2-16.4s-3.5-10.3-6.4-14.6c-3-4.3-6.8-7.8-11.6-10.5s-10.6-4-17.5-4c-6.2 0-11.5 1.3-15.9 4s-8 6.2-10.9 10.5c-2.8 4.3-4.9 9.1-6.2 14.6s-2 10.9-2 16.4c.1 5.6.7 11.1 2 16.5z"/><path d="m582.1 1269.4v20.9h-13v-20.9zm0 41v106.8h-13v-106.8z"/><path d="m694.8 1429.8c-1.7 6.3-4.4 11.7-8.2 16.1s-8.6 7.8-14.6 10.1-13.4 3.5-22 3.5c-5.4 0-10.6-.6-15.7-1.9-5.1-1.2-9.7-3.2-13.8-5.8s-7.5-6-10.1-10c-2.7-4.1-4.2-8.9-4.7-14.6h13c.7 4 2 7.3 4 10s4.4 4.9 7.2 6.5c2.8 1.7 6 2.9 9.4 3.6 3.4.8 7 1.1 10.6 1.1 12.1 0 20.9-3.5 26.3-10.3 5.4-6.9 8.1-16.8 8.1-29.8v-14.3h-.4c-3 6.6-7.5 11.9-13.3 15.9-5.9 4-12.7 6-20.6 6-8.6 0-15.9-1.4-21.9-4.2-6.1-2.8-11.1-6.7-15-11.7s-6.8-10.8-8.6-17.5-2.7-13.8-2.7-21.4c0-7.3 1.1-14.2 3.2-20.8 2.1-6.5 5.2-12.3 9.3-17.2s9.1-8.8 15.1-11.6 12.9-4.2 20.6-4.2c4 0 7.8.6 11.3 1.7s6.7 2.7 9.6 4.7 5.5 4.3 7.8 6.9 4 5.4 5.3 8.3h.4v-18.4h13v98.1c0 7.8-.9 14.9-2.6 21.2zm-29.9-28.4c4.3-2.4 7.9-5.6 10.8-9.5s5.1-8.4 6.5-13.6c1.5-5.1 2.2-10.3 2.2-15.7 0-5.2-.6-10.5-1.9-15.7-1.2-5.2-3.2-10-6-14.3s-6.3-7.7-10.7-10.3c-4.3-2.6-9.6-3.9-15.8-3.9s-11.5 1.3-15.9 3.8c-4.4 2.6-8.1 5.9-11 10s-5 8.9-6.3 14.2-2 10.7-2 16.2c0 5.4.7 10.6 2.1 15.7s3.5 9.6 6.4 13.6 6.5 7.1 11 9.5c4.4 2.4 9.7 3.6 15.7 3.6 5.6 0 10.6-1.2 14.9-3.6z"/><path d="m735.5 1269.4v20.9h-13v-20.9zm0 41v106.8h-13v-106.8z"/><path d="m802.9 1310.3v11.1h-21.7v72c0 4.3.6 7.6 1.8 10s4.1 3.8 8.8 4c3.7 0 7.5-.2 11.2-.6v11c-1.9 0-3.9.1-5.8.2s-3.9.2-5.8.2c-8.7 0-14.8-1.7-18.2-5.1-3.5-3.4-5.1-9.6-5-18.7v-73.1h-18.6v-11h18.6v-32.1h13v32.1z"/><path d="m824.4 1327c2.2-4.6 5.2-8.3 9-11.2s8.2-5 13.3-6.4 10.8-2.1 17-2.1c4.7 0 9.4.4 14.1 1.3s8.9 2.6 12.6 5.1 6.8 6 9.1 10.5 3.5 10.3 3.5 17.5v56.7c0 5.2 2.6 7.9 7.7 7.9 1.5 0 2.9-.3 4.1-.8v11c-1.5.3-2.9.5-4 .6-1.2.1-2.7.2-4.4.2-3.3 0-6-.4-8-1.3s-3.6-2.2-4.7-3.8c-1.1-1.7-1.8-3.6-2.2-5.9-.3-2.3-.5-4.8-.5-7.6h-.4c-2.3 3.5-4.7 6.5-7.1 9.2s-5.1 4.9-8.1 6.7-6.3 3.2-10.1 4.1c-3.8 1-8.3 1.5-13.6 1.5-5 0-9.6-.6-14-1.8-4.3-1.2-8.1-3-11.4-5.6-3.2-2.5-5.8-5.8-7.7-9.7s-2.8-8.6-2.8-14c0-7.5 1.7-13.3 5-17.5s7.7-7.4 13.1-9.6c5.5-2.2 11.6-3.8 18.4-4.7s13.8-1.8 20.8-2.6c2.8-.3 5.2-.6 7.2-1 2.1-.4 3.8-1.1 5.2-2.2 1.4-1 2.4-2.4 3.2-4.2s1.1-4.1 1.1-7c0-4.4-.7-8-2.2-10.9-1.5-2.8-3.5-5.1-6-6.7-2.6-1.7-5.5-2.8-8.9-3.4s-7-.9-10.9-.9c-8.3 0-15 2-20.3 5.9-5.2 3.9-8 10.2-8.3 18.9h-13c.7-6.3 2-11.7 4.2-16.2zm65.2 31.8c-.8 1.5-2.4 2.6-4.8 3.3-2.3.7-4.4 1.2-6.2 1.4-5.5 1-11.2 1.8-17.1 2.6s-11.2 1.9-16 3.4-8.8 3.7-11.9 6.5-4.7 6.9-4.7 12.1c0 3.3.7 6.2 2 8.8s3.1 4.8 5.3 6.6c2.2 1.9 4.8 3.3 7.7 4.2 2.9 1 5.9 1.5 8.9 1.5 5 0 9.7-.8 14.3-2.3s8.5-3.7 11.9-6.6 6.1-6.4 8.1-10.6c2-4.1 3-8.8 3-14.1v-17z"/></g><path d="m929.4 1269.4h13v147.8h-13z"/><g fill-rule="nonzero"><path d="m1068.2 1417.2h-22.3v-14.5h-.4c-3.2 6.2-7.8 10.7-13.9 13.3-6.1 2.7-12.5 4-19.2 4-8.4 0-15.8-1.5-22-4.4-6.3-3-11.5-7-15.6-12.1s-7.2-11.1-9.3-18.1-3.1-14.4-3.1-22.5c0-9.7 1.3-18 3.9-25s6.1-12.8 10.5-17.4c4.3-4.6 9.3-7.9 14.9-10s11.3-3.2 17.1-3.2c3.3 0 6.7.3 10.1.9s6.8 1.6 9.9 3c3.2 1.4 6.1 3.1 8.8 5.3 2.7 2.1 4.9 4.7 6.7 7.6h.4v-54.6h23.6zm-82.4-52.4c0 4.6.6 9 1.8 13.5 1.2 4.4 3 8.3 5.4 11.8s5.5 6.2 9.2 8.3 8.1 3.1 13.2 3.1c5.2 0 9.8-1.1 13.6-3.3s6.9-5.1 9.3-8.7 4.2-7.6 5.4-12.1 1.8-9.1 1.8-13.8c0-11.9-2.7-21.1-8-27.7s-12.5-9.9-21.6-9.9c-5.5 0-10.2 1.1-14 3.4s-6.9 5.2-9.3 8.9-4.1 7.8-5.2 12.4c-1 4.6-1.6 9.3-1.6 14.1z"/><path d="m1142.9 1420.1c-8.6 0-16.2-1.4-22.9-4.2s-12.3-6.7-17-11.7c-4.6-5-8.1-10.9-10.6-17.8-2.4-6.9-3.6-14.5-3.6-22.8 0-8.1 1.2-15.7 3.6-22.6s5.9-12.8 10.6-17.8 10.3-8.9 17-11.7 14.3-4.2 22.9-4.2 16.2 1.4 22.9 4.2 12.3 6.7 17 11.7c4.6 5 8.1 10.9 10.6 17.8 2.4 6.9 3.6 14.4 3.6 22.6 0 8.3-1.2 15.9-3.6 22.8s-5.9 12.8-10.6 17.8c-4.6 5-10.3 8.9-17 11.7s-14.3 4.2-22.9 4.2zm0-18.6c5.2 0 9.8-1.1 13.7-3.3s7-5.1 9.5-8.7 4.3-7.6 5.5-12.1 1.8-9.1 1.8-13.8c0-4.5-.6-9.1-1.8-13.7s-3-8.6-5.5-12.1-5.7-6.4-9.5-8.6c-3.9-2.2-8.4-3.3-13.7-3.3-5.2 0-9.8 1.1-13.7 3.3s-7 5.1-9.5 8.6-4.3 7.6-5.5 12.1c-1.2 4.6-1.8 9.1-1.8 13.7 0 4.7.6 9.3 1.8 13.8s3 8.5 5.5 12.1 5.7 6.5 9.5 8.7c3.9 2.2 8.5 3.3 13.7 3.3z"/><path d="m1206.9 1310.2h25l20.9 79.9h.4l20.1-79.9h23.8l19.2 79.9h.4l21.7-79.9h24l-33.5 107h-24.2l-19.9-79.5h-.4l-19.7 79.5h-24.7z"/><path d="m1377.6 1310.2h22.3v15.7l.4.4c3.6-5.9 8.3-10.6 14.1-14s12.2-5.1 19.2-5.1c11.7 0 21 3 27.7 9.1 6.8 6.1 10.1 15.2 10.1 27.3v73.5h-23.6v-67.3c-.3-8.4-2.1-14.5-5.4-18.3s-8.5-5.7-15.5-5.7c-4 0-7.6.7-10.8 2.2-3.2 1.4-5.9 3.5-8.1 6-2.2 2.6-3.9 5.6-5.2 9-1.2 3.5-1.9 7.1-1.9 11v63.1h-23.6z"/></g><path d="m1497 1269.4h23.6v147.8h-23.6z"/><path d="m1595.3 1420.1c-8.6 0-16.2-1.4-22.9-4.2s-12.3-6.7-17-11.7c-4.6-5-8.1-10.9-10.6-17.8-2.4-6.9-3.6-14.5-3.6-22.8 0-8.1 1.2-15.7 3.6-22.6s5.9-12.8 10.6-17.8 10.3-8.9 17-11.7 14.3-4.2 22.9-4.2 16.2 1.4 22.9 4.2 12.3 6.7 17 11.7c4.6 5 8.1 10.9 10.6 17.8 2.4 6.9 3.6 14.4 3.6 22.6 0 8.3-1.2 15.9-3.6 22.8s-5.9 12.8-10.6 17.8c-4.6 5-10.3 8.9-17 11.7-6.8 2.8-14.4 4.2-22.9 4.2zm0-18.6c5.2 0 9.8-1.1 13.7-3.3s7-5.1 9.5-8.7 4.3-7.6 5.5-12.1 1.8-9.1 1.8-13.8c0-4.5-.6-9.1-1.8-13.7s-3-8.6-5.5-12.1-5.7-6.4-9.5-8.6c-3.9-2.2-8.4-3.3-13.7-3.3-5.2 0-9.8 1.1-13.7 3.3s-7 5.1-9.5 8.6-4.3 7.6-5.5 12.1c-1.2 4.6-1.8 9.1-1.8 13.7 0 4.7.6 9.3 1.8 13.8s3 8.5 5.5 12.1 5.7 6.5 9.5 8.7c3.9 2.2 8.4 3.3 13.7 3.3z" fill-rule="nonzero"/><path d="m1758.5 1393.4c0 2.9.4 5 1.1 6.2.8 1.2 2.2 1.9 4.4 1.9h2.5c1 0 2.1-.1 3.3-.4v16.3c-.8.3-1.9.6-3.2.9s-2.7.7-4 .9c-1.4.3-2.8.5-4.1.6s-2.6.2-3.5.2c-4.8 0-8.8-1-12-2.9s-5.2-5.3-6.2-10.1c-4.7 4.5-10.5 7.9-17.3 9.9-6.8 2.1-13.4 3.1-19.8 3.1-4.8 0-9.5-.7-13.9-2s-8.3-3.2-11.7-5.8-6.1-5.8-8.1-9.7-3-8.5-3-13.8c0-6.6 1.2-12 3.6-16.1s5.6-7.4 9.5-9.7 8.3-4 13.2-5.1c4.9-1 9.8-1.8 14.8-2.4 4.3-.8 8.3-1.4 12.2-1.8 3.9-.3 7.3-.9 10.2-1.8s5.3-2.1 7-3.8 2.6-4.3 2.6-7.8c0-3-.7-5.5-2.2-7.5-1.5-1.9-3.2-3.4-5.4-4.4-2.1-1-4.5-1.7-7.1-2.1-2.6-.3-5.1-.5-7.5-.5-6.6 0-12.1 1.4-16.3 4.1-4.3 2.8-6.7 7-7.2 12.8h-23.6c.4-6.9 2.1-12.6 5-17.2s6.6-8.2 11.1-11 9.5-4.7 15.2-5.8 11.5-1.7 17.4-1.7c5.2 0 10.4.6 15.5 1.7s9.7 2.9 13.8 5.4 7.3 5.7 9.8 9.6 3.7 8.7 3.7 14.4zm-23.5-29.8c-3.6 2.3-8 3.8-13.2 4.2-5.2.5-10.5 1.2-15.7 2.2-2.5.4-4.9 1-7.2 1.8s-4.4 1.8-6.2 3.1-3.2 3-4.2 5.2c-1 2.1-1.6 4.7-1.6 7.8 0 2.6.8 4.8 2.3 6.6s3.3 3.2 5.5 4.2c2.1 1 4.5 1.8 7 2.2s4.9.6 6.9.6c2.6 0 5.4-.3 8.5-1 3-.7 5.9-1.9 8.6-3.5 2.7-1.7 4.9-3.8 6.7-6.3s2.7-5.7 2.7-9.4z" fill-rule="nonzero"/><path d="m1884.8 1417.2h-22.3v-14.5h-.4c-3.2 6.2-7.8 10.7-13.9 13.3s-12.5 4-19.2 4c-8.4 0-15.8-1.5-22-4.4-6.3-3-11.5-7-15.6-12.1s-7.2-11.1-9.3-18.1-3.1-14.4-3.1-22.5c0-9.7 1.3-18 3.9-25s6.1-12.8 10.5-17.4c4.3-4.6 9.3-7.9 14.9-10s11.3-3.2 17.1-3.2c3.3 0 6.7.3 10.1.9s6.8 1.6 9.9 3c3.2 1.4 6.1 3.1 8.8 5.3 2.7 2.1 4.9 4.7 6.7 7.6h.4v-54.6h23.6zm-82.4-52.4c0 4.6.6 9 1.8 13.5 1.2 4.4 3 8.3 5.4 11.8s5.5 6.2 9.2 8.3 8.1 3.1 13.2 3.1c5.2 0 9.8-1.1 13.6-3.3s6.9-5.1 9.3-8.7 4.2-7.6 5.4-12.1 1.8-9.1 1.8-13.8c0-11.9-2.7-21.1-8-27.7s-12.5-9.9-21.6-9.9c-5.5 0-10.2 1.1-14 3.4s-6.9 5.2-9.3 8.9-4.1 7.8-5.2 12.4-1.6 9.3-1.6 14.1z" fill-rule="nonzero"/><path d="m1928.2 1382.8c.7 6.9 3.3 11.7 7.9 14.5s10 4.1 16.3 4.1c2.2 0 4.7-.2 7.6-.5 2.8-.3 5.5-1 8-2s4.5-2.4 6.1-4.2c1.6-1.9 2.3-4.3 2.2-7.3s-1.2-5.5-3.3-7.5c-2.1-1.9-4.7-3.5-8-4.7-3.2-1.2-6.9-2.2-11.1-3-4.1-.8-8.3-1.7-12.6-2.7-4.4-1-8.7-2.1-12.7-3.5-4.1-1.4-7.7-3.2-11-5.6-3.2-2.3-5.8-5.3-7.8-9-1.9-3.7-2.9-8.2-2.9-13.6 0-5.8 1.4-10.7 4.2-14.6s6.4-7.1 10.8-9.5c4.3-2.4 9.2-4.1 14.5-5.1s10.4-1.4 15.2-1.4c5.5 0 10.8.6 15.8 1.8s9.6 3.1 13.7 5.7 7.5 6 10.1 10.2c2.7 4.2 4.4 9.3 5.1 15.2h-24.6c-1.1-5.7-3.7-9.4-7.8-11.4-4.1-1.9-8.7-2.9-14-2.9-1.7 0-3.6.1-5.9.4s-4.4.8-6.4 1.6-3.7 1.9-5.1 3.3-2.1 3.3-2.1 5.7c0 2.9 1 5.2 3 7s4.6 3.3 7.9 4.4c3.2 1.2 6.9 2.2 11.1 3 4.1.8 8.4 1.7 12.8 2.7 4.3 1 8.5 2.1 12.6 3.5s7.8 3.2 11.1 5.6c3.2 2.3 5.9 5.3 7.9 8.9s3 8 3 13.2c0 6.3-1.5 11.7-4.3 16.1-2.9 4.4-6.7 8-11.3 10.8s-9.8 4.8-15.4 6c-5.7 1.2-11.2 1.9-16.8 1.9-6.8 0-13-.8-18.7-2.3s-10.7-3.8-14.9-6.9-7.5-7-9.9-11.6-3.7-10.1-3.8-16.5z" fill-rule="nonzero"/></g></g></svg>