<?xml version="1.0" encoding="utf-8"?>
<!-- Generator: Adobe Illustrator 25.0.0, SVG Export Plug-In . SVG Version: 6.00 Build 0)  -->
<svg version="1.1" id="Layer_1" xmlns="http://www.w3.org/2000/svg" xmlns:xlink="http://www.w3.org/1999/xlink" x="0px" y="0px"
	 viewBox="0 0 792 612" style="enable-background:new 0 0 792 612;" xml:space="preserve">
<style type="text/css">
	.st0{fill:#FFFFFF;}
</style>
<g>
	<path class="st0" d="M399.4,298.7v43.6c2.5-5.5,8.1-9.3,14.5-9.3c6.4,0,11.9,3.8,14.5,9.3v-43.7c0-13.7-5.5-26.2-14.5-35.2
		C404.9,272.6,399.4,285,399.4,298.7z"/>
	<path class="st0" d="M499.8,349c0-8-6.5-14.5-14.5-14.5c-8,0-14.5,6.5-14.5,14.5c0,6.6,4.4,12.1,10.4,13.9c1.3,0.4,2.7,0.6,4.1,0.6
		C493.3,363.5,499.8,357,499.8,349z"/>
	<path class="st0" d="M327.9,298.6c0,0,0,0.1,0,0.1v43.6c2.5-5.4,8.1-9.2,14.5-9.2c6.4,0,11.9,3.8,14.5,9.3v-43.7c0,0,0-0.1,0-0.1
		c0-13.7-5.6-26.1-14.5-35.1C333.5,272.5,328,284.9,327.9,298.6z"/>
	<path class="st0" d="M413.9,334.6c-8,0-14.5,6.5-14.5,14.5c0,1.5,0.2,2.9,0.7,4.3c0,0,0,0,0,0c0.1,0.4,0.3,0.9,0.5,1.3
		c0,0.1,0.1,0.1,0.1,0.2c0.2,0.4,0.3,0.7,0.5,1.1c0.1,0.1,0.1,0.2,0.2,0.3c0.2,0.3,0.4,0.6,0.6,0.9c0.1,0.1,0.1,0.2,0.2,0.2
		c0.2,0.3,0.4,0.6,0.7,0.9c0.3,0.4,0.6,0.7,0.9,1c2.3,2.3,5.3,3.8,8.8,4.2c0.5,0,1,0.1,1.5,0.1c0.5,0,0.9,0,1.3-0.1
		c0.1,0,0.3,0,0.4,0c0.3,0,0.6-0.1,1-0.1c0.1,0,0.3,0,0.4-0.1c0.4-0.1,0.8-0.2,1.2-0.3c0,0,0,0,0,0c0.4-0.1,0.8-0.3,1.2-0.4
		c0.1-0.1,0.3-0.1,0.4-0.2c0.2-0.1,0.5-0.2,0.7-0.3c0.2-0.1,0.3-0.2,0.5-0.3c0.2-0.1,0.4-0.2,0.6-0.4c0.2-0.1,0.3-0.2,0.5-0.3
		c0.2-0.1,0.4-0.3,0.6-0.4c0.3-0.2,0.5-0.4,0.8-0.7c0.2-0.2,0.3-0.3,0.5-0.5c0.2-0.2,0.3-0.4,0.5-0.5c0.1-0.1,0.2-0.2,0.3-0.4
		c0.2-0.2,0.3-0.4,0.5-0.6c0.1-0.1,0.2-0.2,0.3-0.4c0.2-0.2,0.3-0.4,0.5-0.7c0.1-0.1,0.1-0.2,0.2-0.3c0.5-0.9,1-1.8,1.3-2.8
		c0,0,0-0.1,0-0.1c0.1-0.3,0.2-0.6,0.3-0.9c0-0.1,0-0.2,0.1-0.2c0.1-0.3,0.1-0.6,0.2-1c0-0.1,0-0.1,0-0.2c0.1-0.7,0.2-1.5,0.2-2.3
		C428.3,341.1,421.8,334.6,413.9,334.6z"/>
	<path class="st0" d="M356.9,349c0-8-6.5-14.5-14.5-14.5c-8,0-14.4,6.4-14.5,14.4v0.1c0,2.5,0.6,4.8,1.7,6.9c0.4,0.8,1,1.6,1.6,2.3
		c0.6,0.7,1.2,1.4,2,2c0.7,0.6,1.5,1.1,2.3,1.6c0.4,0.2,0.8,0.4,1.3,0.6c1.7,0.7,3.6,1.1,5.6,1.1c0,0,0,0,0.1,0c0,0,0,0,0.1,0
		c0.4,0,0.8,0,1.2-0.1c0.1,0,0.2,0,0.3,0c0.4,0,0.8-0.1,1.2-0.2c0,0,0,0,0,0c0,0,0.1,0,0.1,0c0.4-0.1,0.8-0.2,1.2-0.3
		c0,0,0.1,0,0.1,0c0,0,0,0,0,0c0.4-0.1,0.8-0.3,1.3-0.5c0,0,0.1,0,0.1,0c0.8-0.4,1.6-0.8,2.4-1.3c0,0,0,0,0,0c0,0,0,0,0,0
		C354.3,358.4,356.9,354,356.9,349z"/>
	<path class="st0" d="M412.8,262.4c-9-8.6-21.2-13.9-34.7-13.9c-13.4,0-25.6,5.3-34.7,13.9c8,8.1,13,18.5,14.5,29.7
		c2.8-8.5,10.8-14.6,20.2-14.6c9.4,0,17.4,6.2,20.2,14.6C399.7,280.9,404.7,270.6,412.8,262.4z"/>
	<path class="st0" d="M321.1,263c0-8-6.5-14.5-14.5-14.5c-8,0-14.5,6.5-14.5,14.5c0,8,6.5,14.5,14.5,14.5
		C314.6,277.4,321.1,271,321.1,263z"/>
	<path class="st0" d="M470.9,342.4c2.5-5.5,8.1-9.3,14.5-9.3c6.4,0,11.9,3.8,14.5,9.3v-43.6c0-27.7-22.5-50.2-50.2-50.2
		c-13.4,0-25.6,5.3-34.7,13.9c8,8.2,13,18.5,14.5,29.7c2.8-8.5,10.8-14.6,20.2-14.6c11.7,0,21.3,9.5,21.3,21.3V342.4z"/>
	<path class="st0" d="M341.3,262.4c-7.2-6.9-16.4-11.7-26.7-13.3c4.8,2.8,8,7.9,8,13.8c0,7-4.6,13-10.9,15.1
		c7.1,1.8,12.8,7.1,15.1,14C328.3,280.9,333.3,270.6,341.3,262.4z"/>
</g>
</svg>
