<?xml version="1.0" encoding="utf-8"?>
<!-- Generator: Adobe Illustrator 24.1.0, SVG Export Plug-In . SVG Version: 6.00 Build 0)  -->
<svg version="1.1" id="Layer_1" xmlns="http://www.w3.org/2000/svg" xmlns:xlink="http://www.w3.org/1999/xlink" x="0px" y="0px"
	 viewBox="0 0 2000 2000" style="enable-background:new 0 0 2000 2000;" xml:space="preserve">
<style type="text/css">
	.st0{display:none;}
	.st1{fill:#FFFFFF;}
	.st2{fill:#F5F5F5;}
</style>
<rect x="145.3" y="318.8" class="st0" width="1738.8" height="1224.5"/>
<g id="_x31_0hhNj_1_" class="st0">
	
		<image style="display:inline;overflow:visible;" width="1000" height="460" id="_x31_0hhNj_2_" xlink:href="6845082B0E65A34F.png"  transform="matrix(1 0 0 1 552.7246 1234.5979)">
	</image>
</g>
<polygon class="st1" points="1504.1,878.5 1504.1,771 1319.2,771 1243.1,771 1208.9,771 1208.9,1230.4 1319.2,1230.4 1319.2,1064 
	1493.9,1064 1493.9,961.5 1319.2,961.5 1319.2,878.5 "/>
<g>
	<path class="st2" d="M1208.9,828v135h76.2C1276,909.4,1248.3,862.1,1208.9,828z"/>
	<path class="st2" d="M1284.9,1041.1h-76v133.8C1248,1141.1,1275.6,1094.3,1284.9,1041.1z"/>
</g>
<path class="st1" d="M1157.3,1041.1c-16.6,50.2-63.9,86.4-119.7,86.4c-69.6,0-126.1-56.4-126.1-126.1s56.4-126.1,126.1-126.1
	c56.2,0,103.8,36.8,120.1,87.6h105.9c-18.3-108.3-112.5-190.7-226-190.7c-126.6,0-229.2,102.6-229.2,229.2s102.6,229.2,229.2,229.2
	c113.1,0,207-81.9,225.8-189.6H1157.3z"/>
<path class="st1" d="M762.8,771l0.3-1.1h-0.8h-75.6H685l-180.6,457.8h116.7l0.2-0.6l1,0.6l3.5-7.4l21.9-58.7H803l21.9,58.7l3.5,7.4
	h123.1L762.8,771z M686.6,1057.3l38.8-103.9l38.8,103.9H686.6z"/>
<path class="st2" d="M944.7,1211c10.4,4.6,21.2,8.5,32.4,11.5l-138.4-335c-5.7,9.9-10.6,20.3-14.8,31L944.7,1211z"/>
</svg>
