<?xml version="1.0" encoding="UTF-8"?>
<svg width="128px" height="128px" viewBox="0 0 128 128" version="1.1" xmlns="http://www.w3.org/2000/svg" xmlns:xlink="http://www.w3.org/1999/xlink">
    <title>Members Subscriptions</title>
    <g id="Icon" stroke="none" stroke-width="1" fill="none" fill-rule="evenodd">
        <g id="members-subscriptions">
            <circle id="Background" fill="#3E58CF" cx="64" cy="64" r="64"></circle>
            <g id="Symbol" transform="translate(24.000000, 24.000000)" fill="#FFFFFF">
                <path d="M40,0 C51.045695,0 60,8.954305 60,20 C60,31.045695 51.045695,40 40,40 C28.954305,40 20,31.045695 20,20 C20,8.954305 28.954305,0 40,0 Z M40,10 C34.4771525,10 30,14.4771525 30,20 C30,25.5228475 34.4771525,30 40,30 C45.5228475,30 50,25.5228475 50,20 C50,14.4771525 45.5228475,10 40,10 Z" id="Member" fill-rule="nonzero"></path>
                <rect id="Credit-Card" x="0" y="50" width="80" height="30" rx="4"></rect>
                <path d="M20,60 L60,60 C61.1045695,60 62,60.8954305 62,62 C62,63.1045695 61.1045695,64 60,64 L20,64 C18.8954305,64 18,63.1045695 18,62 C18,60.8954305 18.8954305,60 20,60 Z" id="Swipe"></path>
            </g>
        </g>
    </g>
</svg>